<?xml version="1.0" encoding="UTF-8" standalone="no"?>
<!-- Created with Inkscape (http://www.inkscape.org/) -->

<svg
   width="121.36527mm"
   height="162.40282mm"
   viewBox="0 0 121.36527 162.40282"
   version="1.1"
   id="svg5"
   inkscape:version="1.1.1 (3bf5ae0d25, 2021-09-20)"
   sodipodi:docname="H.svg"
   xmlns:inkscape="http://www.inkscape.org/namespaces/inkscape"
   xmlns:sodipodi="http://sodipodi.sourceforge.net/DTD/sodipodi-0.dtd"
   xmlns="http://www.w3.org/2000/svg"
   xmlns:svg="http://www.w3.org/2000/svg">
  <sodipodi:namedview
     id="namedview7"
     pagecolor="#ffffff"
     bordercolor="#666666"
     borderopacity="1.0"
     inkscape:pageshadow="2"
     inkscape:pageopacity="0.0"
     inkscape:pagecheckerboard="0"
     inkscape:document-units="mm"
     showgrid="false"
     inkscape:zoom="0.40979237"
     inkscape:cx="-79.308456"
     inkscape:cy="430.70592"
     inkscape:window-width="1366"
     inkscape:window-height="707"
     inkscape:window-x="0"
     inkscape:window-y="36"
     inkscape:window-maximized="1"
     inkscape:current-layer="layer1" />
  <defs
     id="defs2" />
  <g
     inkscape:label="Layer 1"
     inkscape:groupmode="layer"
     id="layer1"
     transform="translate(-101.6816,32.846243)">
    <g
       id="g13823"
       transform="translate(-33.571155,1.511139)"
       style="mix-blend-mode:normal;fill:none;stroke:#000000;stroke-width:1.4;stroke-miterlimit:4;stroke-dasharray:none;stroke-opacity:1">
      <g
         aria-label="H"
         id="text1508-5"
         style="font-size:190.218px;font-family:'Noto Serif Display';-inkscape-font-specification:'Noto Serif Display, Normal';fill:none;stroke:#000000;stroke-width:1.4;stroke-miterlimit:4;stroke-dasharray:none;stroke-opacity:1">
        <path
           d="m 209.43777,54.811509 -27.58161,-0.380436 q -8.75002,0 -17.30983,0.570654 -4.75545,34.049022 -4.75545,50.407773 0,16.35875 2.66305,22.63594 -11.79352,-4.1848 -16.73919,-11.22286 -4.75545,-7.22829 -4.75545,-16.73919 0,-9.701115 1.90218,-24.728337 2.0924,-15.21744 2.47284,-17.500056 -6.46741,1.521744 -9.70112,2.663052 -0.38044,-3.423924 -0.38044,-7.228284 0,-10.842426 12.55439,-12.744606 4.1848,-32.3370607 4.1848,-55.353439 0,-5.70654 -0.76087,-15.597876 14.45656,0.760872 18.07071,6.847848 1.90218,3.423924 2.47283,6.65763 0.57065,3.043488 0.57065,10.6522081 0,7.6087201 -2.85327,26.0598659 -2.66305,18.451147 -2.85327,20.163109 33.85881,0 60.86976,-0.570654 4.1848,-31.7664068 4.1848,-54.212131 0,-5.70654 -0.76087,-15.597876 14.45657,0.760872 18.07071,6.847848 1.90218,3.423924 2.47283,6.65763 0.57066,3.043488 0.57066,10.6522081 0,7.6087201 -6.2772,50.5979889 -6.27719,42.989268 -6.27719,60.299111 0,17.11962 2.66305,23.39681 -11.79352,-4.1848 -16.73918,-11.22286 -4.75545,-7.22829 -4.75545,-16.73919 0,-9.701115 3.99457,-39.184905 l 2.66306,-19.402236 q -2.85327,13.31526 -17.8805,13.31526 z"
           style="-inkscape-font-specification:'Merienda, Normal';fill:none;stroke:#000000;stroke-width:1.4;stroke-miterlimit:4;stroke-dasharray:none;stroke-opacity:1"
           id="path13825" />
      </g>
      <g
         aria-label="H"
         id="text1508"
         style="font-size:190.218px;font-family:'Noto Serif Display';-inkscape-font-specification:'Noto Serif Display, Normal';fill:none;stroke:#000000;stroke-width:1.4;stroke-miterlimit:4;stroke-dasharray:none;stroke-opacity:1">
        <path
           d="m 214.00919,50.860284 -27.58161,-0.380436 q -8.75003,0 -17.30984,0.570654 -4.75545,34.049022 -4.75545,50.407768 0,16.35875 2.66306,22.63594 -11.79352,-4.18479 -16.73919,-11.22286 -4.75545,-7.22828 -4.75545,-16.739182 0,-9.701118 1.90218,-24.72834 2.0924,-15.21744 2.47284,-17.500056 -6.46742,1.521744 -9.70112,2.663052 -0.38044,-3.423924 -0.38044,-7.228284 0,-10.842427 12.55439,-12.744607 4.1848,-32.33706 4.1848,-55.353438 0,-5.70654 -0.76088,-15.597877 14.45657,0.760873 18.07071,6.847849 1.90218,3.423924 2.47284,6.65763 0.57065,3.043488 0.57065,10.652208 0,7.6087199 -2.85327,26.059866 -2.66305,18.451146 -2.85327,20.163108 33.85881,0 60.86976,-0.570654 4.1848,-31.766406 4.1848,-54.21213 0,-5.70654 -0.76087,-15.597877 14.45657,0.760873 18.07071,6.847849 1.90218,3.423924 2.47283,6.65763 0.57066,3.043488 0.57066,10.652208 0,7.6087199 -6.2772,50.597988 -6.27719,42.989269 -6.27719,60.299107 0,17.11962 2.66305,23.39681 -11.79352,-4.18479 -16.73918,-11.22286 -4.75546,-7.22828 -4.75546,-16.739182 0,-9.701118 3.99458,-39.184908 l 2.66306,-19.402237 q -2.85328,13.315261 -17.8805,13.315261 z"
           style="-inkscape-font-specification:'Merienda, Normal';fill:none;stroke:#000000;stroke-width:1.4;stroke-miterlimit:4;stroke-dasharray:none;stroke-opacity:1"
           id="path13830" />
      </g>
    </g>
  </g>
</svg>
