<?xml version="1.0" encoding="UTF-8" standalone="no"?>
<!-- Created with Inkscape (http://www.inkscape.org/) -->

<svg
   width="123.11758mm"
   height="165.40686mm"
   viewBox="0 0 123.11758 165.40686"
   version="1.1"
   id="svg5"
   inkscape:version="1.1.1 (3bf5ae0d25, 2021-09-20)"
   sodipodi:docname="H.svg"
   xmlns:inkscape="http://www.inkscape.org/namespaces/inkscape"
   xmlns:sodipodi="http://sodipodi.sourceforge.net/DTD/sodipodi-0.dtd"
   xmlns="http://www.w3.org/2000/svg"
   xmlns:svg="http://www.w3.org/2000/svg">
  <sodipodi:namedview
     id="namedview7"
     pagecolor="#ffffff"
     bordercolor="#666666"
     borderopacity="1.0"
     inkscape:pageshadow="2"
     inkscape:pageopacity="0.0"
     inkscape:pagecheckerboard="0"
     inkscape:document-units="mm"
     showgrid="false"
     inkscape:zoom="0.40979237"
     inkscape:cx="-20.742212"
     inkscape:cy="374.57994"
     inkscape:window-width="1366"
     inkscape:window-height="707"
     inkscape:window-x="0"
     inkscape:window-y="36"
     inkscape:window-maximized="1"
     inkscape:current-layer="g13823" />
  <defs
     id="defs2">
    <linearGradient
       id="linearGradient22646"
       inkscape:swatch="gradient">
      <stop
         style="stop-color:#000000;stop-opacity:1;"
         offset="0"
         id="stop22642" />
      <stop
         style="stop-color:#000000;stop-opacity:0;"
         offset="1"
         id="stop22644" />
    </linearGradient>
  </defs>
  <g
     inkscape:label="Layer 1"
     inkscape:groupmode="layer"
     id="layer1"
     transform="translate(-119.66009,57.046513)">
    <g
       id="g13823"
       transform="translate(-205.39923,-1.0255209)"
       style="mix-blend-mode:normal;fill:none;stroke:#000000;stroke-width:1.4;stroke-miterlimit:4;stroke-dasharray:none;stroke-opacity:1">
      <g
         id="g22318"
         style="opacity:1;stroke:#000000;stroke-width:0.1;stroke-miterlimit:4;stroke-dasharray:none;stroke-dashoffset:0;stroke-opacity:1">
        <g
           aria-label="H"
           id="text15162"
           style="font-size:190.218px;font-family:Merienda;-inkscape-font-specification:'Merienda, Normal';fill:#f27405;stroke:#000000;stroke-width:0.1;stroke-miterlimit:4;stroke-dasharray:none;stroke-dashoffset:0;stroke-opacity:1">
          <g
             id="path20024"
             style="stroke:#000000;stroke-width:0.1;stroke-miterlimit:4;stroke-dasharray:none;stroke-dashoffset:0;stroke-opacity:1">
            <g
               id="path22500"
               style="stroke:#000000;stroke-width:0.1;stroke-miterlimit:4;stroke-dasharray:none;stroke-dashoffset:0;stroke-opacity:1">
              <path
                 style="color:#000000;-inkscape-font-specification:'Merienda, Normal';stroke:#000000;stroke-width:0.1;stroke-miterlimit:4;stroke-dasharray:none;stroke-dashoffset:0;stroke-opacity:1"
                 d="m 399.66487,35.43641 -27.58161,-0.380436 q -8.75003,0 -17.30984,0.570654 -4.75545,34.049022 -4.75545,50.40777 0,16.358752 2.66305,22.635942 -11.79351,-4.1848 -16.73918,-11.222862 -4.75545,-7.228284 -4.75545,-16.739184 0,-9.701118 1.90218,-24.72834 2.0924,-15.21744 2.47283,-17.500056 -6.46741,1.521744 -9.70111,2.663052 -0.38044,-3.423924 -0.38044,-7.228284 0,-10.842427 12.55439,-12.744607 4.18479,-32.33706 4.18479,-55.353438 0,-5.70654 -0.76087,-15.597876 14.45657,0.760872 18.07071,6.847848 1.90218,3.423924 2.47284,6.65763 0.57065,3.043488 0.57065,10.652208 0,7.60872 -2.85327,26.05986621 -2.66305,18.45114579 -2.85327,20.16310779 33.8588,0 60.86976,-0.570654 4.1848,-31.766406 4.1848,-54.21213 0,-5.70654 -0.76088,-15.597876 14.45657,0.760872 18.07072,6.847848 1.90218,3.423924 2.47283,6.65763 0.57065,3.043488 0.57065,10.652208 0,7.60872 -6.27719,50.597989 -6.2772,42.989268 -6.2772,60.299106 0,17.119624 2.66306,23.396814 -11.79352,-4.1848 -16.73919,-11.222862 -4.75545,-7.228284 -4.75545,-16.739184 0,-9.701118 3.99458,-39.184908 l 2.66305,-19.402237 Q 414.69209,35.43641 399.66487,35.43641 Z"
                 id="path22622" />
              <path
                 style="color:#000000;-inkscape-font-specification:'Merienda, Normal';fill:#000000;stroke:#000000;stroke-width:0.1;stroke-miterlimit:4;stroke-dasharray:none;stroke-dashoffset:0;stroke-opacity:1"
                 d="m 341.25781,-49.976562 0.0156,0.208984 c 0.50703,6.591502 0.75976,11.78786 0.75976,15.583984 0,15.30209 -1.39397,33.71249015 -4.17187,55.208985 -4.1292,0.649019 -7.27349,2.018995 -9.375,4.152343 -2.12925,2.161512 -3.19141,5.086448 -3.19141,8.736328 0,2.542412 0.1264,4.959904 0.38086,7.25 l 0.0254,0.230469 0.2207,-0.07617 c 2.08485,-0.735828 5.28341,-1.606778 9.41602,-2.585937 -0.26948,1.645187 -1.0612,7.241648 -2.43359,17.222656 v 0.002 c -1.26875,10.023064 -1.90235,18.272443 -1.90235,24.751953 0,6.371462 1.59436,11.989833 4.78516,16.839844 l 0.002,0.002 0.002,0.0039 c 3.32699,4.734573 8.94264,8.492943 16.82812,11.291013 l 0.39648,0.14063 -0.16406,-0.38867 c -1.75277,-4.13154 -2.64844,-11.66673 -2.64844,-22.562504 10e-6,-10.859891 1.58288,-27.62373 4.73633,-50.230469 5.65132,-0.373319 11.36465,-0.564368 17.14063,-0.564453 l 27.58398,0.38086 c 5.03642,0 9.07576,-1.116337 12.09571,-3.365235 2.4322,-1.811217 4.16101,-4.38981 5.25585,-7.646484 l -2.3164,16.888672 c -2.66341,19.658518 -3.99609,32.718111 -3.9961,39.210937 0,6.371462 1.59436,11.989833 4.78516,16.839844 l 0.002,0.002 0.002,0.0039 c 3.327,4.734572 8.94263,8.492942 16.82812,11.291012 l 0.39649,0.14063 -0.16407,-0.38867 c -1.75173,-4.12907 -2.64843,-11.920754 -2.64843,-23.324222 0,-11.517492 2.09111,-31.615517 6.27539,-60.271484 4.18501,-28.6610297 6.27929,-45.501593 6.27929,-50.625 0,-5.07618 -0.18877,-8.628909 -0.57421,-10.685547 v -0.002 c -0.38475,-2.178903 -1.21622,-4.416142 -2.49219,-6.71289 l -0.002,-0.002 -0.002,-0.002 c -2.46304,-4.14828 -8.55597,-6.430886 -18.21875,-6.939453 l -0.21094,-0.0098 0.0156,0.208984 c 0.50704,6.591502 0.75976,11.78786 0.75976,15.583984 0,14.912078 -1.38992,32.9309302 -4.16406,54.029297 -17.90623,0.377039 -38.07456,0.565072 -60.49023,0.566406 0.13995,-1.222194 1.06548,-7.775256 2.82226,-19.94726525 v -0.001953 c 1.90254,-12.30336175 2.85547,-20.99062175 2.85547,-26.08593775 0,-5.07618 -0.18877,-8.628909 -0.57422,-10.685547 v -0.002 c -0.38475,-2.178903 -1.21621,-4.416142 -2.49218,-6.71289 l -0.002,-0.002 -0.002,-0.002 c -2.46304,-4.14828 -8.55597,-6.430886 -18.21875,-6.939453 z m 0.39649,0.402343 c 9.48006,0.529662 15.37754,2.799818 17.71484,6.736328 1.25813,2.265854 2.07327,4.463385 2.44922,6.59375 l 0.002,0.002 c 0.37528,2.001512 0.56641,5.551295 0.56641,10.61914 0,5.049324 -0.94997,13.734298 -2.85156,26.03125013 v 0.001953 C 357.75976,12.711092 356.81086,19.415119 356.68164,20.578125 l -0.0234,0.207031 h 0.20703 c 22.57356,0 42.86608,-0.189842 60.875,-0.570312 l 0.15821,-0.0039 0.0215,-0.158203 c 2.7906,-21.1831826 4.18555,-39.261017 4.18555,-54.236328 0,-3.758676 -0.25678,-8.92585 -0.75,-15.390625 9.48006,0.529662 15.37753,2.799818 17.71484,6.736328 1.25814,2.265854 2.07523,4.463385 2.45117,6.59375 v 0.002 c 0.37529,2.001512 0.56641,5.551295 0.56641,10.61914 0,5.021543 -2.09083,21.9123744 -6.27539,50.570313 -4.18531,28.663 -6.2793,48.763903 -6.2793,60.326171 0,11.131616 0.8511,18.7666 2.5586,23.07617 -7.63736,-2.76579 -13.07809,-6.43146 -16.29297,-11.003904 -3.1498,-4.787691 -4.72656,-10.326993 -4.72656,-16.636719 0,-6.441984 1.33145,-19.506994 3.99414,-39.160156 l 2.66015,-19.388672 0.002,-0.01367 -0.36329,-0.06445 c -10e-4,0.0051 -0.003,0.0086 -0.004,0.01367 -0.94532,4.398199 -2.88739,7.676281 -5.82422,9.863281 -2.93937,2.18889 -6.88945,3.292336 -11.86914,3.292969 L 372.08398,34.87115 c -5.83737,0 -11.61155,0.189598 -17.32226,0.570312 l -0.15039,0.0098 -0.0215,0.15039 c -3.17086,22.70335 -4.75781,39.509827 -4.75781,50.433594 0,10.634073 0.85126,18.018984 2.55664,22.314454 -7.63698,-2.76592 -13.07842,-6.43134 -16.29297,-11.003907 l -0.002,-0.0039 c -3.14819,-4.786852 -4.72266,-10.3247 -4.72266,-16.632813 0,-6.454844 0.63308,-14.69087 1.90039,-24.703125 v -0.002 c 1.39462,-10.142635 2.22099,-15.984083 2.47266,-17.49414 l 0.0449,-0.273438 -0.26953,0.0625 c -4.2109,0.990802 -7.32029,1.852955 -9.48633,2.605469 -0.23769,-2.213594 -0.36718,-4.536947 -0.36718,-6.990235 0,-3.578396 1.02844,-6.389875 3.08398,-8.476562 2.05554,-2.086687 5.15347,-3.453829 9.3125,-4.083984 l 0.13672,-0.02148 0.0195,-0.138672 c 2.79058,-21.5635647 4.18555,-40.021491 4.18555,-55.376953 0,-3.758676 -0.25679,-8.92585 -0.75,-15.390625 z"
                 id="path22619" />
            </g>
            <g
               id="path22497"
               style="stroke:#000000;stroke-width:0.1;stroke-miterlimit:4;stroke-dasharray:none;stroke-dashoffset:0;stroke-opacity:1">
              <path
                 style="color:#000000;-inkscape-font-specification:'Merienda, Normal';fill:#000000;stroke:#000000;stroke-width:0.1;stroke-miterlimit:4;stroke-dasharray:none;stroke-dashoffset:0;stroke-opacity:1"
                 d="m 341.25781,-49.976562 0.0156,0.208984 c 0.50703,6.591502 0.75976,11.78786 0.75976,15.583984 0,15.30209 -1.39397,33.71249015 -4.17187,55.208985 -4.1292,0.649019 -7.27349,2.018995 -9.375,4.152343 -2.12925,2.161512 -3.19141,5.086448 -3.19141,8.736328 0,2.542412 0.1264,4.959904 0.38086,7.25 l 0.0254,0.230469 0.2207,-0.07617 c 2.08485,-0.735828 5.28341,-1.606778 9.41602,-2.585937 -0.26948,1.645187 -1.0612,7.241648 -2.43359,17.222656 v 0.002 c -1.26875,10.023064 -1.90235,18.272443 -1.90235,24.751953 0,6.371462 1.59436,11.989833 4.78516,16.839844 l 0.002,0.002 0.002,0.0039 c 3.32699,4.734573 8.94264,8.492943 16.82812,11.291013 l 0.39648,0.14063 -0.16406,-0.38867 c -1.75277,-4.13154 -2.64844,-11.66673 -2.64844,-22.562504 10e-6,-10.859891 1.58288,-27.62373 4.73633,-50.230469 5.65132,-0.373319 11.36465,-0.564368 17.14063,-0.564453 l 27.58398,0.38086 c 5.03642,0 9.07576,-1.116337 12.09571,-3.365235 2.4322,-1.811217 4.16101,-4.38981 5.25585,-7.646484 l -2.3164,16.888672 c -2.66341,19.658518 -3.99609,32.718111 -3.9961,39.210937 0,6.371462 1.59436,11.989833 4.78516,16.839844 l 0.002,0.002 0.002,0.0039 c 3.327,4.734572 8.94263,8.492942 16.82812,11.291012 l 0.39649,0.14063 -0.16407,-0.38867 c -1.75173,-4.12907 -2.64843,-11.920754 -2.64843,-23.324222 0,-11.517492 2.09111,-31.615517 6.27539,-60.271484 4.18501,-28.6610297 6.27929,-45.501593 6.27929,-50.625 0,-5.07618 -0.18877,-8.628909 -0.57421,-10.685547 v -0.002 c -0.38475,-2.178903 -1.21622,-4.416142 -2.49219,-6.71289 l -0.002,-0.002 -0.002,-0.002 c -2.46304,-4.14828 -8.55597,-6.430886 -18.21875,-6.939453 l -0.21094,-0.0098 0.0156,0.208984 c 0.50704,6.591502 0.75976,11.78786 0.75976,15.583984 0,14.912078 -1.38992,32.9309302 -4.16406,54.029297 -17.90623,0.377039 -38.07456,0.565072 -60.49023,0.566406 0.13995,-1.222194 1.06548,-7.775256 2.82226,-19.94726525 v -0.001953 c 1.90254,-12.30336175 2.85547,-20.99062175 2.85547,-26.08593775 0,-5.07618 -0.18877,-8.628909 -0.57422,-10.685547 v -0.002 c -0.38475,-2.178903 -1.21621,-4.416142 -2.49218,-6.71289 l -0.002,-0.002 -0.002,-0.002 c -2.46304,-4.14828 -8.55597,-6.430886 -18.21875,-6.939453 z m 0.39649,0.402343 c 9.48006,0.529662 15.37754,2.799818 17.71484,6.736328 1.25813,2.265854 2.07327,4.463385 2.44922,6.59375 l 0.002,0.002 c 0.37528,2.001512 0.56641,5.551295 0.56641,10.61914 0,5.049324 -0.94997,13.734298 -2.85156,26.03125013 v 0.001953 C 357.75976,12.711092 356.81086,19.415119 356.68164,20.578125 l -0.0234,0.207031 h 0.20703 c 22.57356,0 42.86608,-0.189842 60.875,-0.570312 l 0.15821,-0.0039 0.0215,-0.158203 c 2.7906,-21.1831826 4.18555,-39.261017 4.18555,-54.236328 0,-3.758676 -0.25678,-8.92585 -0.75,-15.390625 9.48006,0.529662 15.37753,2.799818 17.71484,6.736328 1.25814,2.265854 2.07523,4.463385 2.45117,6.59375 v 0.002 c 0.37529,2.001512 0.56641,5.551295 0.56641,10.61914 0,5.021543 -2.09083,21.9123744 -6.27539,50.570313 -4.18531,28.663 -6.2793,48.763903 -6.2793,60.326171 0,11.131616 0.8511,18.7666 2.5586,23.07617 -7.63736,-2.76579 -13.07809,-6.43146 -16.29297,-11.003904 -3.1498,-4.787691 -4.72656,-10.326993 -4.72656,-16.636719 0,-6.441984 1.33145,-19.506994 3.99414,-39.160156 l 2.66015,-19.388672 0.002,-0.01367 -0.36329,-0.06445 c -10e-4,0.0051 -0.003,0.0086 -0.004,0.01367 -0.94532,4.398199 -2.88739,7.676281 -5.82422,9.863281 -2.93937,2.18889 -6.88945,3.292336 -11.86914,3.292969 L 372.08398,34.87115 c -5.83737,0 -11.61155,0.189598 -17.32226,0.570312 l -0.15039,0.0098 -0.0215,0.15039 c -3.17086,22.70335 -4.75781,39.509827 -4.75781,50.433594 0,10.634073 0.85126,18.018984 2.55664,22.314454 -7.63698,-2.76592 -13.07842,-6.43134 -16.29297,-11.003907 l -0.002,-0.0039 c -3.14819,-4.786852 -4.72266,-10.3247 -4.72266,-16.632813 0,-6.454844 0.63308,-14.69087 1.90039,-24.703125 v -0.002 c 1.39462,-10.142635 2.22099,-15.984083 2.47266,-17.49414 l 0.0449,-0.273438 -0.26953,0.0625 c -4.2109,0.990802 -7.32029,1.852955 -9.48633,2.605469 -0.23769,-2.213594 -0.36718,-4.536947 -0.36718,-6.990235 0,-3.578396 1.02844,-6.389875 3.08398,-8.476562 2.05554,-2.086687 5.15347,-3.453829 9.3125,-4.083984 l 0.13672,-0.02148 0.0195,-0.138672 c 2.79058,-21.5635647 4.18555,-40.021491 4.18555,-55.376953 0,-3.758676 -0.25679,-8.92585 -0.75,-15.390625 z"
                 id="path22616" />
              <path
                 style="color:#000000;-inkscape-font-specification:'Merienda, Normal';fill:#000000;stroke:#000000;stroke-width:0.1;stroke-miterlimit:4;stroke-dasharray:none;stroke-dashoffset:0;stroke-opacity:1"
                 d="m 341.05664,-50.171875 0.0156,0.208984 0.0156,0.208985 c 0.50682,6.588766 0.75977,11.782412 0.75977,15.570312 0,15.259907 -1.39222,33.62941911 -4.15821,55.064453 -4.0758,0.66317 -7.22514,2.023245 -9.33593,4.166016 -2.16626,2.199081 -3.24415,5.181379 -3.24415,8.867187 0,2.548549 0.12752,4.97191 0.38282,7.269532 l 0.0508,0.460937 0.43945,-0.15039 0.002,-0.002 c 2.01351,-0.710646 5.16946,-1.562975 9.13086,-2.507812 -0.28324,1.753757 -1.0445,7.126953 -2.39453,16.945312 v 0.0039 l -0.002,0.0098 v 0.0098 0.0039 c -1.26721,10.016424 -1.90234,18.265911 -1.90234,24.751953 0,6.402353 1.60508,12.0602 4.8164,16.941407 l 0.006,0.01172 0.004,0.0039 C 339,102.441 344.65065,106.21411 352.55684,109.01953 l 0.79297,0.28125 -0.32813,-0.77539 c -1.73,-4.07788 -2.63281,-11.604615 -2.63281,-22.490229 10e-6,-10.813522 1.5784,-27.537689 4.71485,-50.050781 5.59748,-0.366478 11.25473,-0.558466 16.9746,-0.558594 l 27.58399,0.38086 h 0.002 c 5.06379,0 9.14718,-1.123733 12.20703,-3.402344 2.17022,-1.616122 3.6956,-3.929922 4.80469,-6.677735 l -2.16016,15.746094 c -2.66376,19.661168 -3.99803,32.718166 -3.99804,39.236328 0,6.402353 1.60508,12.0602 4.8164,16.941407 l 0.006,0.01172 0.004,0.0039 c 3.35723,4.774984 9.00786,8.548094 16.91406,11.353514 l 0.79297,0.28125 -0.32812,-0.77539 c -1.72789,-4.07287 -2.63282,-11.858205 -2.63282,-23.251953 0,-11.495062 2.08968,-31.591723 6.27344,-60.24414 4.18523,-28.6625235 6.28125,-45.478471 6.28125,-50.652344 0,-5.080766 -0.18759,-8.634919 -0.57812,-10.71875 -0.38892,-2.202518 -1.22755,-4.459963 -2.51172,-6.771484 l -0.0117,-0.02344 -0.0215,-0.01953 0.0274,0.03516 c -2.51627,-4.237923 -8.68141,-6.521369 -18.36914,-7.03125 l -0.41992,-0.01953 0.0293,0.417969 c 0.50683,6.588766 0.75977,11.782412 0.75977,15.570312 0,14.859853 -1.38625,32.8273454 -4.14453,53.845703 -17.80563,0.373661 -37.8514,0.559869 -60.11133,0.5625 0.15288,-1.303397 1.05463,-7.68816 2.79297,-19.7324215 v -0.001953 c 7.1e-4,-0.004597 10e-4,-0.007123 0.002,-0.0117188 v -0.001953 c 1.90147,-12.2986437 2.85547,-20.9834297 2.85547,-26.0996097 0,-5.080766 -0.18758,-8.634918 -0.57813,-10.71875 v -0.002 c -0.38892,-2.202518 -1.22754,-4.45801 -2.51171,-6.769531 l -0.006,-0.0098 c -2.51627,-4.237923 -8.68141,-6.519416 -18.36914,-7.029297 z m 18.79102,7.048828 -0.008,-0.01367 -0.0195,-0.01953 z m 2.51757,6.78125 0.004,0.0332 v -0.01758 z m 79.70118,0 0.004,0.0332 v -0.01758 z M 341.45898,-49.78125 h 0.002 c 0.0704,0.0037 0.12137,0.01759 0.1914,0.02148 l -0.0351,-0.002 -0.0449,0.02148 -0.10938,0.05273 c -0.003,-0.03952 -8.6e-4,-0.05413 -0.004,-0.09375 z m 79.70118,0 h 0.002 c 0.069,0.0036 0.11887,0.01767 0.1875,0.02148 l -0.18945,-0.01172 c -3.2e-4,-0.0041 3.1e-4,-0.0056 0,-0.0098 z m -79.24024,0.05078 c 4.6257,0.277108 8.42841,0.956946 11.34375,2.074219 1.48543,0.569275 2.75528,1.243878 3.79688,2.03125 -1.04361,-0.786269 -2.30894,-1.463383 -3.79688,-2.03125 -2.91992,-1.114381 -6.71954,-1.797086 -11.34375,-2.074219 z m 79.70117,0 c 6.98259,0.4183 12.05476,1.772781 15.14063,4.105469 -3.09159,-2.329244 -8.16001,-3.687115 -15.14063,-4.105469 z m -79.77148,0.365235 c 9.32173,0.551687 15.0942,2.806064 17.35937,6.621093 1.24867,2.249674 2.05618,4.425797 2.42774,6.53125 l 0.002,0.01563 c 0.36927,1.975013 0.5625,5.516625 0.5625,10.574219 0,5.026089 -0.94861,13.710776 -2.84961,26.00390638 v 0.001953 l -0.002,0.0117188 v 0.001953 C 357.57646,12.681604 356.62954,19.375126 356.49805,20.558594 l -0.0469,0.412109 h 0.41406 c 22.57458,0 42.86837,-0.189808 60.87891,-0.570312 l 0.31641,-0.0078 0.043,-0.314453 v -0.002 c 2.79133,-21.1887655 4.1875,-39.272968 4.1875,-54.259766 0,-3.712646 -0.25874,-8.844753 -0.73829,-15.18164 9.32049,0.551905 15.09242,2.806353 17.35743,6.621093 1.24605,2.244944 2.05319,4.416422 2.42578,6.517579 v 0.002 l 0.004,0.01758 c 0.37008,1.973718 0.5625,5.520801 0.5625,10.583984 0,2.485064 -0.5209,7.968045 -1.5664,16.3984376 -1.0455,8.43039271 -2.61487,19.8163604 -4.70703,34.1445314 -4.18582,28.666482 -6.28125,48.768898 -6.28125,60.353515 0,10.862611 0.81783,18.345028 2.45898,22.755868 -7.41827,-2.74105 -12.72262,-6.33525 -15.85547,-10.791024 -3.1271,-4.755425 -4.69336,-10.252681 -4.69336,-16.529297 0,-6.416458 1.32987,-19.484305 3.99219,-39.134765 l 2.66016,-19.388672 0.0273,-0.189453 -0.71875,-0.128907 -0.0352,0.179688 c 0.004,-0.01836 -8.4e-4,-0.0039 -0.004,0.0098 -0.93834,4.365729 -2.85682,7.596498 -5.75391,9.753906 -2.89911,2.15891 -6.80454,3.254913 -11.75586,3.255859 l -27.58398,-0.380859 h -0.002 c -5.84137,0 -11.61908,0.189319 -17.33398,0.570312 l -0.30078,0.01953 -0.043,0.300781 c -3.17142,22.707344 -4.75977,39.517291 -4.75977,50.458984 0,10.373912 0.81784,17.609807 2.45508,21.994147 -7.41271,-2.7395 -12.71472,-6.32931 -15.84765,-10.781256 l -0.006,-0.0078 c -3.12773,-4.755742 -4.69141,-10.253961 -4.69141,-16.53125 0,-6.442727 0.63175,-14.672372 1.89844,-24.679687 l 0.002,-0.01172 v -0.002 c 1.39261,-10.12771 2.22115,-15.977276 2.4707,-17.474609 l 0.0879,-0.546875 -0.53906,0.125 c -4.11129,0.967363 -7.10338,1.802158 -9.27148,2.544921 -0.22285,-2.143877 -0.35352,-4.380702 -0.35352,-6.75 0,-3.542906 1.01241,-6.296266 3.03125,-8.345703 2.01863,-2.04922 5.07377,-3.404998 9.20703,-4.03125 l 0.27344,-0.04297 0.0391,-0.275391 v -0.002 c 2.7913,-21.56909317 4.1875,-40.033727 4.1875,-55.400391 0,-3.712647 -0.26069,-8.844753 -0.74023,-15.18164 z m 17.68555,6.443359 c 0.63157,1.138121 1.15185,2.260769 1.5625,3.367188 0.40384,1.088095 0.69811,2.15901 0.88867,3.216796 l -0.004,-0.0039 c -0.19061,-1.055879 -0.48146,-2.12674 -0.88476,-3.21289 -0.41085,-1.106465 -0.93094,-2.229081 -1.5625,-3.367188 z m -17.31641,8.738281 c 0,15.343736 -1.39391,33.79446354 -4.18359,55.351563 v 0.002 h -0.002 c -0.002,2.38e-4 -0.002,0.0017 -0.004,0.002 l 0.0156,-0.123047 c 2.77861,-21.5019928 4.17383,-39.919099 4.17383,-55.232422 z m 100.05469,8.560547 c 0,5.072931 -2.09256,21.9381777 -6.27735,50.597656 -3.13859,21.494595 -5.10007,38.174461 -5.88476,50.039063 0.78469,-11.864929 2.74617,-28.544467 5.88476,-50.039063 2.0924,-14.329738 3.66098,-25.71746683 4.70703,-34.1523434 1.04606,-8.4348766 1.57032,-13.9088386 1.57032,-16.4453126 z m -21.39649,16.1484376 c -0.63164,8.2032929 -1.6365,17.2415956 -2.84375,26.7265624 1.20746,-9.4857517 2.21115,-18.5202771 2.84375,-26.7265624 z M 359.7168,0.45117188 C 357.96233,12.607313 357.03832,19.151929 356.89648,20.390625 l -0.0234,0.207031 h 0.20117 c -0.0774,5e-6 -0.13149,0.002 -0.20899,0.002 v -0.002 c 0.12678,-1.140965 1.07847,-7.861698 2.85157,-20.14648412 z M 417.75195,19.886719 c -0.007,0.05127 -0.009,0.09128 -0.0156,0.142578 -0.0393,8.3e-4 -0.0935,0.0011 -0.13281,0.002 l 0.1289,-0.0039 z m -0.20898,2.248047 -0.34375,2.5 -0.35742,-0.08398 c 0.2437,-0.725036 0.4771,-1.460212 0.65429,-2.257812 l 0.0234,0.0039 z m -90.38281,5.492187 c -0.99658,1.784583 -1.67969,3.792546 -1.67969,6.287109 0,2.459803 0.13074,4.789596 0.36914,7.009766 l 0.0215,0.216797 c -0.003,9.34e-4 -0.009,0.003 -0.0117,0.0039 v -0.002 c -0.25348,-2.28202 -0.3789,-4.692928 -0.3789,-7.228516 0,-2.494967 0.68256,-4.50244 1.67969,-6.287109 z m 87.67773,1.03125 c -0.0995,0.150501 -0.2104,0.288082 -0.31445,0.433594 0.10509,-0.14445 0.2139,-0.28417 0.31445,-0.433594 z m -59.9707,6.964844 -0.0899,0.0078 -0.0215,0.148438 c -3.15401,22.610725 -4.73827,39.377983 -4.73828,50.255859 0,5.366771 0.22632,9.880311 0.65625,13.619141 -0.43416,-3.724834 -0.65625,-8.250506 -0.65625,-13.619141 0,-10.877796 1.58425,-27.645099 4.73828,-50.255859 0.008,-0.05825 0.009,-0.09402 0.0176,-0.152344 0.0309,-0.0021 0.0628,-0.0019 0.0937,-0.0039 z m -19.30664,2.855469 v 0.002 c -1.5e-4,8.56e-4 -0.002,0.0089 -0.002,0.0098 l -0.26367,0.0625 c 0.11642,-0.0276 0.14747,-0.04642 0.26563,-0.07422 z m 94.1582,46.794921 c 0,5.619179 0.2259,10.320643 0.65625,14.1875 -0.43457,-3.851748 -0.65625,-8.566763 -0.65625,-14.1875 z m -16.15625,8.417969 c 0.59337,1.297116 1.28757,2.545609 2.07812,3.748047 l -0.006,-0.0059 c -0.78894,-1.200631 -1.48009,-2.447238 -2.07227,-3.742188 z m 4.94531,7.054684 c 1.08725,1.03449 2.31133,2.01195 3.67383,2.93164 1.36613,0.92214 2.87038,1.78825 4.51172,2.59571 1.64134,0.80746 3.4209,1.55649 5.33594,2.25 l 0.34765,0.12695 c 0.002,0.005 0.004,0.0142 0.006,0.0195 v 0.002 c -2.05985,-0.73092 -3.94302,-1.53696 -5.68945,-2.39844 -1.63967,-0.80882 -3.14828,-1.67179 -4.51172,-2.59571 -1.3594,-0.92117 -2.58898,-1.89606 -3.67383,-2.93164 z m -79.69726,0.004 c 1.04101,0.98995 2.22241,1.92188 3.51562,2.80664 -1.29006,-0.88617 -2.47704,-1.81567 -3.51562,-2.80664 z m 3.66992,2.92969 c 1.36561,0.92159 2.86926,1.78671 4.50976,2.59375 1.64135,0.80745 3.42101,1.55646 5.33594,2.25 l 0.34961,0.12695 c 0.002,0.005 0.004,0.0141 0.006,0.0195 v 0.002 c -0.12786,-0.0454 -0.22881,-0.10257 -0.35547,-0.14844 -1.91436,-0.69337 -3.69747,-1.44169 -5.33594,-2.25 -1.63862,-0.80839 -3.14704,-1.67041 -4.50976,-2.59375 z"
                 id="path22613" />
            </g>
          </g>
        </g>
        <g
           aria-label="H"
           id="text15162-5"
           style="font-size:190.218px;font-family:Merienda;-inkscape-font-specification:'Merienda, Normal';fill:#115173;stroke:#000000;stroke-width:0.1;stroke-miterlimit:4;stroke-dasharray:none;stroke-dashoffset:0;stroke-opacity:1"
           transform="translate(5.4818869,-5.7965649)">
          <g
             id="path20024-4"
             style="stroke:#000000;stroke-width:0.1;stroke-miterlimit:4;stroke-dasharray:none;stroke-dashoffset:0;stroke-opacity:1">
            <g
               id="path22494"
               style="stroke:#000000;stroke-width:0.1;stroke-miterlimit:4;stroke-dasharray:none;stroke-dashoffset:0;stroke-opacity:1">
              <path
                 style="color:#000000;-inkscape-font-specification:'Merienda, Normal';stroke:#000000;stroke-width:0.1;stroke-miterlimit:4;stroke-dasharray:none;stroke-dashoffset:0;stroke-opacity:1"
                 d="m 399.66487,35.43641 -27.58161,-0.380436 q -8.75003,0 -17.30984,0.570654 -4.75545,34.049022 -4.75545,50.40777 0,16.358752 2.66305,22.635942 -11.79351,-4.1848 -16.73918,-11.222862 -4.75545,-7.228284 -4.75545,-16.739184 0,-9.701118 1.90218,-24.72834 2.0924,-15.21744 2.47283,-17.500056 -6.46741,1.521744 -9.70111,2.663052 -0.38044,-3.423924 -0.38044,-7.228284 0,-10.842427 12.55439,-12.744607 4.18479,-32.33706 4.18479,-55.353438 0,-5.70654 -0.76087,-15.597876 14.45657,0.760872 18.07071,6.847848 1.90218,3.423924 2.47284,6.65763 0.57065,3.043488 0.57065,10.652208 0,7.60872 -2.85327,26.05986621 -2.66305,18.45114579 -2.85327,20.16310779 33.8588,0 60.86976,-0.570654 4.1848,-31.766406 4.1848,-54.21213 0,-5.70654 -0.76088,-15.597876 14.45657,0.760872 18.07072,6.847848 1.90218,3.423924 2.47283,6.65763 0.57065,3.043488 0.57065,10.652208 0,7.60872 -6.27719,50.597989 -6.2772,42.989268 -6.2772,60.299106 0,17.119624 2.66306,23.396814 -11.79352,-4.1848 -16.73919,-11.222862 -4.75545,-7.228284 -4.75545,-16.739184 0,-9.701118 3.99458,-39.184908 l 2.66305,-19.402237 Q 414.69209,35.43641 399.66487,35.43641 Z"
                 id="path22610" />
              <path
                 style="color:#000000;-inkscape-font-specification:'Merienda, Normal';fill:#000000;stroke:#000000;stroke-width:0.1;stroke-miterlimit:4;stroke-dasharray:none;stroke-dashoffset:0;stroke-opacity:1"
                 d="m 341.25781,-49.976562 0.0156,0.208984 c 0.50703,6.591502 0.75976,11.78786 0.75976,15.583984 0,15.30209 -1.39397,33.71249015 -4.17187,55.208985 -4.1292,0.649019 -7.27349,2.018995 -9.375,4.152343 -2.12925,2.161512 -3.19141,5.086448 -3.19141,8.736328 0,2.542412 0.1264,4.959904 0.38086,7.25 l 0.0254,0.230469 0.2207,-0.07617 c 2.08485,-0.735828 5.28341,-1.606778 9.41602,-2.585937 -0.26948,1.645187 -1.0612,7.241648 -2.43359,17.222656 v 0.002 c -1.26875,10.023064 -1.90235,18.272443 -1.90235,24.751953 0,6.371462 1.59436,11.989833 4.78516,16.839844 l 0.002,0.002 0.002,0.0039 c 3.32699,4.734573 8.94264,8.492943 16.82812,11.291013 l 0.39648,0.14063 -0.16406,-0.38867 c -1.75277,-4.13154 -2.64844,-11.66673 -2.64844,-22.562504 10e-6,-10.859891 1.58288,-27.62373 4.73633,-50.230469 5.65132,-0.373319 11.36465,-0.564368 17.14063,-0.564453 l 27.58398,0.38086 c 5.03642,0 9.07576,-1.116337 12.09571,-3.365235 2.4322,-1.811217 4.16101,-4.38981 5.25585,-7.646484 l -2.3164,16.888672 c -2.66341,19.658518 -3.99609,32.718111 -3.9961,39.210937 0,6.371462 1.59436,11.989833 4.78516,16.839844 l 0.002,0.002 0.002,0.0039 c 3.327,4.734572 8.94263,8.492942 16.82812,11.291012 l 0.39649,0.14063 -0.16407,-0.38867 c -1.75173,-4.12907 -2.64843,-11.920754 -2.64843,-23.324222 0,-11.517492 2.09111,-31.615517 6.27539,-60.271484 4.18501,-28.6610297 6.27929,-45.501593 6.27929,-50.625 0,-5.07618 -0.18877,-8.628909 -0.57421,-10.685547 v -0.002 c -0.38475,-2.178903 -1.21622,-4.416142 -2.49219,-6.71289 l -0.002,-0.002 -0.002,-0.002 c -2.46304,-4.14828 -8.55597,-6.430886 -18.21875,-6.939453 l -0.21094,-0.0098 0.0156,0.208984 c 0.50704,6.591502 0.75976,11.78786 0.75976,15.583984 0,14.912078 -1.38992,32.9309302 -4.16406,54.029297 -17.90623,0.377039 -38.07456,0.565072 -60.49023,0.566406 0.13995,-1.222194 1.06548,-7.775256 2.82226,-19.94726525 v -0.001953 c 1.90254,-12.30336175 2.85547,-20.99062175 2.85547,-26.08593775 0,-5.07618 -0.18877,-8.628909 -0.57422,-10.685547 v -0.002 c -0.38475,-2.178903 -1.21621,-4.416142 -2.49218,-6.71289 l -0.002,-0.002 -0.002,-0.002 c -2.46304,-4.14828 -8.55597,-6.430886 -18.21875,-6.939453 z m 0.39649,0.402343 c 9.48006,0.529662 15.37754,2.799818 17.71484,6.736328 1.25813,2.265854 2.07327,4.463385 2.44922,6.59375 l 0.002,0.002 c 0.37528,2.001512 0.56641,5.551295 0.56641,10.61914 0,5.049324 -0.94997,13.734298 -2.85156,26.03125013 v 0.001953 C 357.75976,12.711092 356.81086,19.415119 356.68164,20.578125 l -0.0234,0.207031 h 0.20703 c 22.57356,0 42.86608,-0.189842 60.875,-0.570312 l 0.15821,-0.0039 0.0215,-0.158203 c 2.7906,-21.1831826 4.18555,-39.261017 4.18555,-54.236328 0,-3.758676 -0.25678,-8.92585 -0.75,-15.390625 9.48006,0.529662 15.37753,2.799818 17.71484,6.736328 1.25814,2.265854 2.07523,4.463385 2.45117,6.59375 v 0.002 c 0.37529,2.001512 0.56641,5.551295 0.56641,10.61914 0,5.021543 -2.09083,21.9123744 -6.27539,50.570313 -4.18531,28.663 -6.2793,48.763903 -6.2793,60.326171 0,11.131616 0.8511,18.7666 2.5586,23.07617 -7.63736,-2.76579 -13.07809,-6.43146 -16.29297,-11.003904 -3.1498,-4.787691 -4.72656,-10.326993 -4.72656,-16.636719 0,-6.441984 1.33145,-19.506994 3.99414,-39.160156 l 2.66015,-19.388672 0.002,-0.01367 -0.36329,-0.06445 c -10e-4,0.0051 -0.003,0.0086 -0.004,0.01367 -0.94532,4.398199 -2.88739,7.676281 -5.82422,9.863281 -2.93937,2.18889 -6.88945,3.292336 -11.86914,3.292969 L 372.08398,34.87115 c -5.83737,0 -11.61155,0.189598 -17.32226,0.570312 l -0.15039,0.0098 -0.0215,0.15039 c -3.17086,22.70335 -4.75781,39.509827 -4.75781,50.433594 0,10.634073 0.85126,18.018984 2.55664,22.314454 -7.63698,-2.76592 -13.07842,-6.43134 -16.29297,-11.003907 l -0.002,-0.0039 c -3.14819,-4.786852 -4.72266,-10.3247 -4.72266,-16.632813 0,-6.454844 0.63308,-14.69087 1.90039,-24.703125 v -0.002 c 1.39462,-10.142635 2.22099,-15.984083 2.47266,-17.49414 l 0.0449,-0.273438 -0.26953,0.0625 c -4.2109,0.990802 -7.32029,1.852955 -9.48633,2.605469 -0.23769,-2.213594 -0.36718,-4.536947 -0.36718,-6.990235 0,-3.578396 1.02844,-6.389875 3.08398,-8.476562 2.05554,-2.086687 5.15347,-3.453829 9.3125,-4.083984 l 0.13672,-0.02148 0.0195,-0.138672 c 2.79058,-21.5635647 4.18555,-40.021491 4.18555,-55.376953 0,-3.758676 -0.25679,-8.92585 -0.75,-15.390625 z"
                 id="path22607" />
            </g>
            <g
               id="path22491"
               style="stroke:#000000;stroke-width:0.1;stroke-miterlimit:4;stroke-dasharray:none;stroke-dashoffset:0;stroke-opacity:1">
              <path
                 style="color:#000000;-inkscape-font-specification:'Merienda, Normal';fill:#000000;stroke:#000000;stroke-width:0.1;stroke-miterlimit:4;stroke-dasharray:none;stroke-dashoffset:0;stroke-opacity:1"
                 d="m 341.25781,-49.976562 0.0156,0.208984 c 0.50703,6.591502 0.75976,11.78786 0.75976,15.583984 0,15.30209 -1.39397,33.71249015 -4.17187,55.208985 -4.1292,0.649019 -7.27349,2.018995 -9.375,4.152343 -2.12925,2.161512 -3.19141,5.086448 -3.19141,8.736328 0,2.542412 0.1264,4.959904 0.38086,7.25 l 0.0254,0.230469 0.2207,-0.07617 c 2.08485,-0.735828 5.28341,-1.606778 9.41602,-2.585937 -0.26948,1.645187 -1.0612,7.241648 -2.43359,17.222656 v 0.002 c -1.26875,10.023064 -1.90235,18.272443 -1.90235,24.751953 0,6.371462 1.59436,11.989833 4.78516,16.839844 l 0.002,0.002 0.002,0.0039 c 3.32699,4.734573 8.94264,8.492943 16.82812,11.291013 l 0.39648,0.14063 -0.16406,-0.38867 c -1.75277,-4.13154 -2.64844,-11.66673 -2.64844,-22.562504 10e-6,-10.859891 1.58288,-27.62373 4.73633,-50.230469 5.65132,-0.373319 11.36465,-0.564368 17.14063,-0.564453 l 27.58398,0.38086 c 5.03642,0 9.07576,-1.116337 12.09571,-3.365235 2.4322,-1.811217 4.16101,-4.38981 5.25585,-7.646484 l -2.3164,16.888672 c -2.66341,19.658518 -3.99609,32.718111 -3.9961,39.210937 0,6.371462 1.59436,11.989833 4.78516,16.839844 l 0.002,0.002 0.002,0.0039 c 3.327,4.734572 8.94263,8.492942 16.82812,11.291012 l 0.39649,0.14063 -0.16407,-0.38867 c -1.75173,-4.12907 -2.64843,-11.920754 -2.64843,-23.324222 0,-11.517492 2.09111,-31.615517 6.27539,-60.271484 4.18501,-28.6610297 6.27929,-45.501593 6.27929,-50.625 0,-5.07618 -0.18877,-8.628909 -0.57421,-10.685547 v -0.002 c -0.38475,-2.178903 -1.21622,-4.416142 -2.49219,-6.71289 l -0.002,-0.002 -0.002,-0.002 c -2.46304,-4.14828 -8.55597,-6.430886 -18.21875,-6.939453 l -0.21094,-0.0098 0.0156,0.208984 c 0.50704,6.591502 0.75976,11.78786 0.75976,15.583984 0,14.912078 -1.38992,32.9309302 -4.16406,54.029297 -17.90623,0.377039 -38.07456,0.565072 -60.49023,0.566406 0.13995,-1.222194 1.06548,-7.775256 2.82226,-19.94726525 v -0.001953 c 1.90254,-12.30336175 2.85547,-20.99062175 2.85547,-26.08593775 0,-5.07618 -0.18877,-8.628909 -0.57422,-10.685547 v -0.002 c -0.38475,-2.178903 -1.21621,-4.416142 -2.49218,-6.71289 l -0.002,-0.002 -0.002,-0.002 c -2.46304,-4.14828 -8.55597,-6.430886 -18.21875,-6.939453 z m 0.39649,0.402343 c 9.48006,0.529662 15.37754,2.799818 17.71484,6.736328 1.25813,2.265854 2.07327,4.463385 2.44922,6.59375 l 0.002,0.002 c 0.37528,2.001512 0.56641,5.551295 0.56641,10.61914 0,5.049324 -0.94997,13.734298 -2.85156,26.03125013 v 0.001953 C 357.75976,12.711092 356.81086,19.415119 356.68164,20.578125 l -0.0234,0.207031 h 0.20703 c 22.57356,0 42.86608,-0.189842 60.875,-0.570312 l 0.15821,-0.0039 0.0215,-0.158203 c 2.7906,-21.1831826 4.18555,-39.261017 4.18555,-54.236328 0,-3.758676 -0.25678,-8.92585 -0.75,-15.390625 9.48006,0.529662 15.37753,2.799818 17.71484,6.736328 1.25814,2.265854 2.07523,4.463385 2.45117,6.59375 v 0.002 c 0.37529,2.001512 0.56641,5.551295 0.56641,10.61914 0,5.021543 -2.09083,21.9123744 -6.27539,50.570313 -4.18531,28.663 -6.2793,48.763903 -6.2793,60.326171 0,11.131616 0.8511,18.7666 2.5586,23.07617 -7.63736,-2.76579 -13.07809,-6.43146 -16.29297,-11.003904 -3.1498,-4.787691 -4.72656,-10.326993 -4.72656,-16.636719 0,-6.441984 1.33145,-19.506994 3.99414,-39.160156 l 2.66015,-19.388672 0.002,-0.01367 -0.36329,-0.06445 c -10e-4,0.0051 -0.003,0.0086 -0.004,0.01367 -0.94532,4.398199 -2.88739,7.676281 -5.82422,9.863281 -2.93937,2.18889 -6.88945,3.292336 -11.86914,3.292969 L 372.08398,34.87115 c -5.83737,0 -11.61155,0.189598 -17.32226,0.570312 l -0.15039,0.0098 -0.0215,0.15039 c -3.17086,22.70335 -4.75781,39.509827 -4.75781,50.433594 0,10.634073 0.85126,18.018984 2.55664,22.314454 -7.63698,-2.76592 -13.07842,-6.43134 -16.29297,-11.003907 l -0.002,-0.0039 c -3.14819,-4.786852 -4.72266,-10.3247 -4.72266,-16.632813 0,-6.454844 0.63308,-14.69087 1.90039,-24.703125 v -0.002 c 1.39462,-10.142635 2.22099,-15.984083 2.47266,-17.49414 l 0.0449,-0.273438 -0.26953,0.0625 c -4.2109,0.990802 -7.32029,1.852955 -9.48633,2.605469 -0.23769,-2.213594 -0.36718,-4.536947 -0.36718,-6.990235 0,-3.578396 1.02844,-6.389875 3.08398,-8.476562 2.05554,-2.086687 5.15347,-3.453829 9.3125,-4.083984 l 0.13672,-0.02148 0.0195,-0.138672 c 2.79058,-21.5635647 4.18555,-40.021491 4.18555,-55.376953 0,-3.758676 -0.25679,-8.92585 -0.75,-15.390625 z"
                 id="path22604" />
              <path
                 style="color:#000000;-inkscape-font-specification:'Merienda, Normal';fill:#000000;stroke:#000000;stroke-width:0.1;stroke-miterlimit:4;stroke-dasharray:none;stroke-dashoffset:0;stroke-opacity:1"
                 d="m 341.05664,-50.171875 0.0156,0.208984 0.0156,0.208985 c 0.50682,6.588766 0.75977,11.782412 0.75977,15.570312 0,15.259907 -1.39222,33.62941911 -4.15821,55.064453 -4.0758,0.66317 -7.22514,2.023245 -9.33593,4.166016 -2.16626,2.199081 -3.24415,5.181379 -3.24415,8.867187 0,2.548549 0.12752,4.97191 0.38282,7.269532 l 0.0508,0.460937 0.43945,-0.15039 0.002,-0.002 c 2.01351,-0.710646 5.16946,-1.562975 9.13086,-2.507812 -0.28324,1.753757 -1.0445,7.126953 -2.39453,16.945312 v 0.0039 l -0.002,0.0098 v 0.0098 0.0039 c -1.26721,10.016424 -1.90234,18.265911 -1.90234,24.751953 0,6.402353 1.60508,12.0602 4.8164,16.941407 l 0.006,0.01172 0.004,0.0039 C 339,102.441 344.65065,106.21411 352.55684,109.01953 l 0.79297,0.28125 -0.32813,-0.77539 c -1.73,-4.07788 -2.63281,-11.604615 -2.63281,-22.490229 10e-6,-10.813522 1.5784,-27.537689 4.71485,-50.050781 5.59748,-0.366478 11.25473,-0.558466 16.9746,-0.558594 l 27.58399,0.38086 h 0.002 c 5.06379,0 9.14718,-1.123733 12.20703,-3.402344 2.17022,-1.616122 3.6956,-3.929922 4.80469,-6.677735 l -2.16016,15.746094 c -2.66376,19.661168 -3.99803,32.718166 -3.99804,39.236328 0,6.402353 1.60508,12.0602 4.8164,16.941407 l 0.006,0.01172 0.004,0.0039 c 3.35723,4.774984 9.00786,8.548094 16.91406,11.353514 l 0.79297,0.28125 -0.32812,-0.77539 c -1.72789,-4.07287 -2.63282,-11.858205 -2.63282,-23.251953 0,-11.495062 2.08968,-31.591723 6.27344,-60.24414 4.18523,-28.6625235 6.28125,-45.478471 6.28125,-50.652344 0,-5.080766 -0.18759,-8.634919 -0.57812,-10.71875 -0.38892,-2.202518 -1.22755,-4.459963 -2.51172,-6.771484 l -0.0117,-0.02344 -0.0215,-0.01953 0.0274,0.03516 c -2.51627,-4.237923 -8.68141,-6.521369 -18.36914,-7.03125 l -0.41992,-0.01953 0.0293,0.417969 c 0.50683,6.588766 0.75977,11.782412 0.75977,15.570312 0,14.859853 -1.38625,32.8273454 -4.14453,53.845703 -17.80563,0.373661 -37.8514,0.559869 -60.11133,0.5625 0.15288,-1.303397 1.05463,-7.68816 2.79297,-19.7324215 v -0.001953 c 7.1e-4,-0.004597 10e-4,-0.007123 0.002,-0.0117188 v -0.001953 c 1.90147,-12.2986437 2.85547,-20.9834297 2.85547,-26.0996097 0,-5.080766 -0.18758,-8.634918 -0.57813,-10.71875 v -0.002 c -0.38892,-2.202518 -1.22754,-4.45801 -2.51171,-6.769531 l -0.006,-0.0098 c -2.51627,-4.237923 -8.68141,-6.519416 -18.36914,-7.029297 z m 18.79102,7.048828 -0.008,-0.01367 -0.0195,-0.01953 z m 2.51757,6.78125 0.004,0.0332 v -0.01758 z m 79.70118,0 0.004,0.0332 v -0.01758 z M 341.45898,-49.78125 h 0.002 c 0.0704,0.0037 0.12137,0.01759 0.1914,0.02148 l -0.0351,-0.002 -0.0449,0.02148 -0.10938,0.05273 c -0.003,-0.03952 -8.6e-4,-0.05413 -0.004,-0.09375 z m 79.70118,0 h 0.002 c 0.069,0.0036 0.11887,0.01767 0.1875,0.02148 l -0.18945,-0.01172 c -3.2e-4,-0.0041 3.1e-4,-0.0056 0,-0.0098 z m -79.24024,0.05078 c 4.6257,0.277108 8.42841,0.956946 11.34375,2.074219 1.48543,0.569275 2.75528,1.243878 3.79688,2.03125 -1.04361,-0.786269 -2.30894,-1.463383 -3.79688,-2.03125 -2.91992,-1.114381 -6.71954,-1.797086 -11.34375,-2.074219 z m 79.70117,0 c 6.98259,0.4183 12.05476,1.772781 15.14063,4.105469 -3.09159,-2.329244 -8.16001,-3.687115 -15.14063,-4.105469 z m -79.77148,0.365235 c 9.32173,0.551687 15.0942,2.806064 17.35937,6.621093 1.24867,2.249674 2.05618,4.425797 2.42774,6.53125 l 0.002,0.01563 c 0.36927,1.975013 0.5625,5.516625 0.5625,10.574219 0,5.026089 -0.94861,13.710776 -2.84961,26.00390638 v 0.001953 l -0.002,0.0117188 v 0.001953 C 357.57646,12.681604 356.62954,19.375126 356.49805,20.558594 l -0.0469,0.412109 h 0.41406 c 22.57458,0 42.86837,-0.189808 60.87891,-0.570312 l 0.31641,-0.0078 0.043,-0.314453 v -0.002 c 2.79133,-21.1887655 4.1875,-39.272968 4.1875,-54.259766 0,-3.712646 -0.25874,-8.844753 -0.73829,-15.18164 9.32049,0.551905 15.09242,2.806353 17.35743,6.621093 1.24605,2.244944 2.05319,4.416422 2.42578,6.517579 v 0.002 l 0.004,0.01758 c 0.37008,1.973718 0.5625,5.520801 0.5625,10.583984 0,2.485064 -0.5209,7.968045 -1.5664,16.3984376 -1.0455,8.43039271 -2.61487,19.8163604 -4.70703,34.1445314 -4.18582,28.666482 -6.28125,48.768898 -6.28125,60.353515 0,10.862611 0.81783,18.345028 2.45898,22.755868 -7.41827,-2.74105 -12.72262,-6.33525 -15.85547,-10.791024 -3.1271,-4.755425 -4.69336,-10.252681 -4.69336,-16.529297 0,-6.416458 1.32987,-19.484305 3.99219,-39.134765 l 2.66016,-19.388672 0.0273,-0.189453 -0.71875,-0.128907 -0.0352,0.179688 c 0.004,-0.01836 -8.4e-4,-0.0039 -0.004,0.0098 -0.93834,4.365729 -2.85682,7.596498 -5.75391,9.753906 -2.89911,2.15891 -6.80454,3.254913 -11.75586,3.255859 l -27.58398,-0.380859 h -0.002 c -5.84137,0 -11.61908,0.189319 -17.33398,0.570312 l -0.30078,0.01953 -0.043,0.300781 c -3.17142,22.707344 -4.75977,39.517291 -4.75977,50.458984 0,10.373912 0.81784,17.609807 2.45508,21.994147 -7.41271,-2.7395 -12.71472,-6.32931 -15.84765,-10.781256 l -0.006,-0.0078 c -3.12773,-4.755742 -4.69141,-10.253961 -4.69141,-16.53125 0,-6.442727 0.63175,-14.672372 1.89844,-24.679687 l 0.002,-0.01172 v -0.002 c 1.39261,-10.12771 2.22115,-15.977276 2.4707,-17.474609 l 0.0879,-0.546875 -0.53906,0.125 c -4.11129,0.967363 -7.10338,1.802158 -9.27148,2.544921 -0.22285,-2.143877 -0.35352,-4.380702 -0.35352,-6.75 0,-3.542906 1.01241,-6.296266 3.03125,-8.345703 2.01863,-2.04922 5.07377,-3.404998 9.20703,-4.03125 l 0.27344,-0.04297 0.0391,-0.275391 v -0.002 c 2.7913,-21.56909317 4.1875,-40.033727 4.1875,-55.400391 0,-3.712647 -0.26069,-8.844753 -0.74023,-15.18164 z m 17.68555,6.443359 c 0.63157,1.138121 1.15185,2.260769 1.5625,3.367188 0.40384,1.088095 0.69811,2.15901 0.88867,3.216796 l -0.004,-0.0039 c -0.19061,-1.055879 -0.48146,-2.12674 -0.88476,-3.21289 -0.41085,-1.106465 -0.93094,-2.229081 -1.5625,-3.367188 z m -17.31641,8.738281 c 0,15.343736 -1.39391,33.79446354 -4.18359,55.351563 v 0.002 h -0.002 c -0.002,2.38e-4 -0.002,0.0017 -0.004,0.002 l 0.0156,-0.123047 c 2.77861,-21.5019928 4.17383,-39.919099 4.17383,-55.232422 z m 100.05469,8.560547 c 0,5.072931 -2.09256,21.9381777 -6.27735,50.597656 -3.13859,21.494595 -5.10007,38.174461 -5.88476,50.039063 0.78469,-11.864929 2.74617,-28.544467 5.88476,-50.039063 2.0924,-14.329738 3.66098,-25.71746683 4.70703,-34.1523434 1.04606,-8.4348766 1.57032,-13.9088386 1.57032,-16.4453126 z m -21.39649,16.1484376 c -0.63164,8.2032929 -1.6365,17.2415956 -2.84375,26.7265624 1.20746,-9.4857517 2.21115,-18.5202771 2.84375,-26.7265624 z M 359.7168,0.45117188 C 357.96233,12.607313 357.03832,19.151929 356.89648,20.390625 l -0.0234,0.207031 h 0.20117 c -0.0774,5e-6 -0.13149,0.002 -0.20899,0.002 v -0.002 c 0.12678,-1.140965 1.07847,-7.861698 2.85157,-20.14648412 z M 417.75195,19.886719 c -0.007,0.05127 -0.009,0.09128 -0.0156,0.142578 -0.0393,8.3e-4 -0.0935,0.0011 -0.13281,0.002 l 0.1289,-0.0039 z m -0.20898,2.248047 -0.34375,2.5 -0.35742,-0.08398 c 0.2437,-0.725036 0.4771,-1.460212 0.65429,-2.257812 l 0.0234,0.0039 z m -90.38281,5.492187 c -0.99658,1.784583 -1.67969,3.792546 -1.67969,6.287109 0,2.459803 0.13074,4.789596 0.36914,7.009766 l 0.0215,0.216797 c -0.003,9.34e-4 -0.009,0.003 -0.0117,0.0039 v -0.002 c -0.25348,-2.28202 -0.3789,-4.692928 -0.3789,-7.228516 0,-2.494967 0.68256,-4.50244 1.67969,-6.287109 z m 87.67773,1.03125 c -0.0995,0.150501 -0.2104,0.288082 -0.31445,0.433594 0.10509,-0.14445 0.2139,-0.28417 0.31445,-0.433594 z m -59.9707,6.964844 -0.0899,0.0078 -0.0215,0.148438 c -3.15401,22.610725 -4.73827,39.377983 -4.73828,50.255859 0,5.366771 0.22632,9.880311 0.65625,13.619141 -0.43416,-3.724834 -0.65625,-8.250506 -0.65625,-13.619141 0,-10.877796 1.58425,-27.645099 4.73828,-50.255859 0.008,-0.05825 0.009,-0.09402 0.0176,-0.152344 0.0309,-0.0021 0.0628,-0.0019 0.0937,-0.0039 z m -19.30664,2.855469 v 0.002 c -1.5e-4,8.56e-4 -0.002,0.0089 -0.002,0.0098 l -0.26367,0.0625 c 0.11642,-0.0276 0.14747,-0.04642 0.26563,-0.07422 z m 94.1582,46.794921 c 0,5.619179 0.2259,10.320643 0.65625,14.1875 -0.43457,-3.851748 -0.65625,-8.566763 -0.65625,-14.1875 z m -16.15625,8.417969 c 0.59337,1.297116 1.28757,2.545609 2.07812,3.748047 l -0.006,-0.0059 c -0.78894,-1.200631 -1.48009,-2.447238 -2.07227,-3.742188 z m 4.94531,7.054684 c 1.08725,1.03449 2.31133,2.01195 3.67383,2.93164 1.36613,0.92214 2.87038,1.78825 4.51172,2.59571 1.64134,0.80746 3.4209,1.55649 5.33594,2.25 l 0.34765,0.12695 c 0.002,0.005 0.004,0.0142 0.006,0.0195 v 0.002 c -2.05985,-0.73092 -3.94302,-1.53696 -5.68945,-2.39844 -1.63967,-0.80882 -3.14828,-1.67179 -4.51172,-2.59571 -1.3594,-0.92117 -2.58898,-1.89606 -3.67383,-2.93164 z m -79.69726,0.004 c 1.04101,0.98995 2.22241,1.92188 3.51562,2.80664 -1.29006,-0.88617 -2.47704,-1.81567 -3.51562,-2.80664 z m 3.66992,2.92969 c 1.36561,0.92159 2.86926,1.78671 4.50976,2.59375 1.64135,0.80745 3.42101,1.55646 5.33594,2.25 l 0.34961,0.12695 c 0.002,0.005 0.004,0.0141 0.006,0.0195 v 0.002 c -0.12786,-0.0454 -0.22881,-0.10257 -0.35547,-0.14844 -1.91436,-0.69337 -3.69747,-1.44169 -5.33594,-2.25 -1.63862,-0.80839 -3.14704,-1.67041 -4.50976,-2.59375 z"
                 id="path22601" />
            </g>
          </g>
        </g>
      </g>
    </g>
  </g>
</svg>
