<?xml version="1.0" standalone="no"?>
<!DOCTYPE svg PUBLIC "-//W3C//DTD SVG 20010904//EN"
 "http://www.w3.org/TR/2001/REC-SVG-20010904/DTD/svg10.dtd">
<svg version="1.0" xmlns="http://www.w3.org/2000/svg"
 width="500.000000pt" height="500.000000pt" viewBox="0 0 500.000000 500.000000"
 preserveAspectRatio="xMidYMid meet">
<metadata>
Created by potrace 1.16, written by Peter Selinger 2001-2019
</metadata>
<g transform="translate(0.000000,500.000000) scale(0.100000,-0.100000)"
fill="#000000" stroke="none">
<path d="M815 4089 c-27 -11 -54 -25 -60 -31 -7 -8 -6 -9 4 -3 7 4 4 -6 -8
-22 -44 -59 -43 -67 123 -753 328 -1363 395 -1631 416 -1659 51 -73 180 -80
252 -14 10 9 18 12 19 7 1 -25 38 86 38 116 0 19 -57 268 -127 552 l-129 517
451 3 c248 2 458 7 467 11 13 6 24 -34 78 -270 217 -959 207 -925 271 -958 36
-19 110 -19 153 -1 18 7 47 29 64 49 l32 36 4 -32 c2 -18 5 4 5 49 2 66 -9
129 -59 350 -33 148 -80 359 -105 469 -50 224 -68 298 -125 535 -98 404 -112
563 -63 746 38 142 41 185 14 229 -62 101 -235 100 -304 -2 -14 -20 -23 -40
-20 -45 3 -4 0 -8 -6 -8 -7 0 -9 -7 -6 -16 4 -9 2 -13 -5 -8 -8 4 -9 -1 -4
-16 5 -17 4 -21 -6 -15 -9 6 -11 3 -6 -8 9 -24 -3 -83 -14 -66 -4 7 -6 -7 -3
-32 2 -25 1 -37 -3 -27 -10 21 -8 -248 2 -342 4 -36 16 -114 26 -174 18 -100
19 -129 3 -113 -4 3 -10 21 -15 39 l-9 33 4 -35 4 -35 -452 4 c-248 1 -452 4
-454 6 -2 2 -24 86 -48 187 -155 637 -166 678 -192 710 -50 59 -120 72 -207
37z"/>
</g>
</svg>
