<?xml version="1.0" encoding="UTF-8" standalone="no"?>
<svg
   width="679"
   height="678"
   fill="none"
   viewBox="0 0 679 678"
   version="1.1"
   id="svg5283"
   sodipodi:docname="skills.svg"
   inkscape:version="1.1.1 (3bf5ae0d25, 2021-09-20)"
   xmlns:inkscape="http://www.inkscape.org/namespaces/inkscape"
   xmlns:sodipodi="http://sodipodi.sourceforge.net/DTD/sodipodi-0.dtd"
   xmlns="http://www.w3.org/2000/svg"
   xmlns:svg="http://www.w3.org/2000/svg">
  <defs
     id="defs5287" />
  <sodipodi:namedview
     id="namedview5285"
     pagecolor="#ffffff"
     bordercolor="#666666"
     borderopacity="1.0"
     inkscape:pageshadow="2"
     inkscape:pageopacity="0.0"
     inkscape:pagecheckerboard="0"
     showgrid="false"
     inkscape:snap-grids="true"
     inkscape:snap-others="true"
     inkscape:object-nodes="true"
     inkscape:snap-nodes="true"
     inkscape:snap-global="false"
     inkscape:zoom="0.57656213"
     inkscape:cx="355.55578"
     inkscape:cy="359.89183"
     inkscape:window-width="1366"
     inkscape:window-height="707"
     inkscape:window-x="0"
     inkscape:window-y="36"
     inkscape:window-maximized="1"
     inkscape:current-layer="svg5283" />
  <ellipse
     fill="#CC6C06"
     rx="20.035"
     ry="19.496"
     transform="matrix(0.999997 0.00246356 -0.00260153 0.999997 341.085 322.546)"
     id="ellipse5257" />
  <path
     fill="#1F51FF"
     d="M490.135 52L494.871 97.944L516.713 104.056L538.586 98.0516L543.561 52.1316L490.135 52ZM533.673 61.3912L532.99 66.8786L516.934 72.5603L516.892 72.5718L532.405 72.61L530.58 89.6184L516.909 92.9153L503.172 89.4928L502.304 80.9146L509.107 80.9314L509.541 85.3771L516.855 86.9386L524.47 85.1702L525.003 78.0229L501.866 77.9079L501.866 77.8963L501.838 77.9078L501.351 72.5335L516.962 67.1525L517.867 66.8414L500.768 66.7993L499.975 61.3082L533.673 61.3912Z"
     id="path5259" />
  <path
     fill="#EE4B2B"
     d="M314.135 0L318.871 45.944L340.643 52.0554L362.586 46.0516L367.561 0.131618L314.135 0ZM356.976 14.9482L331.404 14.8852L331.96 20.6194L356.391 20.6796L354.454 37.8966L340.825 40.9963L340.825 41.0311L340.672 41.0308L326.948 37.8288L326.136 29.0303L332.773 29.0466L333.248 33.4693L340.687 35.1703L348.163 33.506L349.016 26.2898L325.796 26.2326L324.059 9.3316L357.603 9.41423L356.976 14.9482Z"
     id="path5261" />
  <path
     fill="#BF40BF"
     d="M643.144 193.407C645.8 193.414 648.35 192.507 650.232 190.886C652.115 189.266 653.176 187.064 653.182 184.765C653.188 182.467 652.138 180.26 650.264 178.63C648.39 177 645.845 176.081 643.189 176.074L623.157 176.025C620.502 176.018 617.954 176.924 616.072 178.544C614.191 180.164 613.13 182.364 613.124 184.662C613.118 186.959 614.167 189.164 616.04 190.793C617.913 192.422 620.457 193.341 623.112 193.348C620.456 193.341 617.906 194.248 616.023 195.869C614.14 197.489 613.079 199.691 613.074 201.99C613.068 204.288 614.117 206.495 615.991 208.125C617.865 209.755 620.41 210.675 623.067 210.681C621.086 210.675 619.148 211.178 617.498 212.125C615.847 213.073 614.559 214.422 613.796 216.004C613.033 217.585 612.829 219.327 613.209 221.009C613.59 222.692 614.539 224.239 615.936 225.455C617.333 226.671 619.115 227.502 621.057 227.842C622.998 228.182 625.013 228.017 626.845 227.366C628.677 226.716 630.245 225.609 631.35 224.187C632.456 222.765 633.049 221.092 633.054 219.378L633.122 193.383L643.144 193.407ZM643.144 193.407C641.164 193.402 639.227 193.906 637.579 194.853C635.93 195.801 634.643 197.151 633.882 198.731C633.12 200.312 632.917 202.053 633.299 203.735C633.681 205.416 634.63 206.961 636.027 208.176C637.424 209.391 639.205 210.22 641.146 210.559C643.087 210.898 645.1 210.732 646.931 210.081C648.762 209.43 650.328 208.323 651.432 206.902C652.535 205.48 653.127 203.807 653.131 202.094C653.137 199.796 652.088 197.591 650.215 195.962C648.342 194.333 645.798 193.414 643.144 193.407Z"
     id="path5263" />
  <g
     id="g8967"
     transform="matrix(1.0033158,0,0,1.0033158,7.7594902,62.937342)">
    <g
       id="g8963">
      <g
         id="g9046">
        <g
           id="g9090">
          <path
             fill="#cc6c06"
             d="m 25.5862,438.492 c -0.0504,0.117 -0.0252,0.065 0,0 z m 20.8215,-9.371 c -1.679,-0.005 -3.3369,0.492 -4.8456,1.45 -0.4891,-1.29 -0.9954,-2.417 -1.0767,-3.262 -0.0976,-0.986 -0.2046,-1.571 -0.0847,-2.74 0.1199,-1.17 0.6501,-2.826 0.6421,-2.945 -0.008,-0.119 -0.115,-0.715 -1.1918,-0.728 -1.0769,-0.014 -2.0042,0.266 -2.1129,0.634 -0.1919,0.672 -0.3417,1.363 -0.4478,2.067 -0.1953,1.267 -2.168,5.789 -3.2844,8.147 -0.3649,-0.921 -0.6717,-1.734 -0.7368,-2.384 -0.0976,-0.986 -0.2046,-1.571 -0.0847,-2.741 0.12,-1.169 0.6502,-2.825 0.6421,-2.944 -0.008,-0.119 -0.115,-0.715 -1.191,-0.728 -1.076,-0.014 -2.0042,0.265 -2.1137,0.633 -0.1094,0.368 -0.2286,1.234 -0.4478,2.068 -0.2192,0.833 -2.8508,8.365 -3.5396,10.323 -0.3532,0.996 -0.6558,1.797 -0.8743,2.338 -0.0336,0.086 -0.0588,0.14 -0.0756,0.183 0.0252,-0.054 0.042,-0.108 0.042,-0.086 -0.1849,0.465 -0.2941,0.725 -0.2941,0.725 v 0.011 c -0.1428,0.346 -0.3023,0.66 -0.3774,0.659 -0.0501,0 -0.1562,-0.91 0.0306,-2.155 0.3992,-2.62 1.3364,-6.69 1.3284,-6.83 -0.0081,-0.076 0.1774,-0.78 -0.6063,-1.161 -0.7588,-0.359 -1.0358,0.236 -1.1026,0.236 -0.0668,0 -0.1174,0.216 -0.1174,0.216 0,0 0.8551,-4.59 -1.6067,-4.596 -1.536,-0.004 -3.6788,2.179 -4.7341,4.158 -0.6607,0.464 -2.0908,1.468 -3.5962,2.536 -0.5771,0.41 -1.1709,0.831 -1.7312,1.231 -0.0416,-0.055 -0.0749,-0.109 -0.1165,-0.163 -2.9769,-4.145 -8.48556,-7.082 -8.23736,-12.638 0.08874,-2.025 0.64519,-7.341 10.64356,-13.771 8.1946,-5.265 14.7314,-3.798 15.8491,-0.568 1.6075,4.607 -3.5312,13.161 -12.03,14.375 -3.2393,0.458 -4.9372,-1.171 -5.3614,-1.779 -0.4408,-0.64 -0.5075,-0.672 -0.6747,-0.554 -0.276,0.195 -0.1022,0.758 -0.0029,1.094 0.2482,0.856 1.2878,2.375 3.063,3.138 1.5594,0.664 5.355,1.042 9.9515,-1.254 5.164,-2.565 9.1972,-9.735 8.0358,-15.749 -1.1829,-6.111 -8.9846,-8.134 -16.3754,-4.752 -4.4038,2.015 -9.1687,5.187 -12.60128,9.327 -4.077421,4.928 -4.738906,9.227 -4.476451,11.025 0.934231,6.381 7.700201,10.557 10.404431,13.639 -0.1338,0.098 -0.2593,0.184 -0.3764,0.27 -1.36211,0.874 -6.53774,4.37 -7.84046,8.071 -1.47181,4.199 0.22333,7.214 1.34003,7.628 3.48531,1.265 7.06323,-0.99 8.99213,-4.7 1.9288,-3.71 1.7085,-8.562 0.8294,-10.774 -0.0083,-0.032 -0.0249,-0.054 -0.0332,-0.087 0.3513,-0.27 0.711,-0.539 1.0707,-0.809 0.6934,-0.529 1.3708,-1.015 1.9646,-1.436 -0.3369,1.169 -0.5827,2.576 -0.7132,4.612 -0.1565,2.382 0.5952,5.471 1.5771,6.686 0.4327,0.532 0.9577,0.544 1.2833,0.545 1.152,0.003 1.6728,-1.231 2.2518,-2.702 0.7142,-1.796 1.3457,-3.885 1.3457,-3.885 0,0 -0.7994,5.652 1.346,5.657 0.7839,0.002 1.572,-1.307 1.9252,-1.977 v 0.011 c 0,0 0.0168,-0.044 0.0587,-0.13 0.0839,-0.163 0.1259,-0.26 0.1259,-0.26 l 10e-5,-0.032 c 0.3191,-0.704 1.0161,-2.316 2.0657,-4.977 1.3613,-3.441 2.6656,-7.737 2.6656,-7.737 0.1225,0.945 0.293,1.879 0.5103,2.795 0.2311,1.03 0.7207,2.157 1.1102,3.252 -0.3187,0.562 -0.5116,0.887 -0.5116,0.887 6e-4,0.008 0.0036,0.016 0.0083,0.021 -0.2515,0.433 -0.5366,0.898 -0.8299,1.352 -1.072,1.644 -2.3466,3.525 -2.515,4.066 -0.202,0.639 -0.1531,1.115 0.2299,1.485 0.2831,0.282 0.7839,0.326 1.3091,0.273 0.9602,-0.084 1.6372,-0.385 1.9632,-0.58 0.601,-0.277 1.1692,-0.662 1.6885,-1.143 1.046,-0.994 1.6842,-2.422 1.6307,-4.307 -0.0307,-1.04 -0.2868,-2.08 -0.6015,-3.055 0.0923,-0.174 0.1929,-0.357 0.2853,-0.541 1.6601,-3.126 2.9463,-6.558 2.9463,-6.558 0.1225,0.945 0.293,1.879 0.5103,2.795 0.1981,0.878 0.5871,1.843 0.9436,2.786 -1.5561,1.631 -2.5211,3.524 -2.8582,4.769 -0.6238,2.305 -0.1423,3.346 0.767,3.587 0.4088,0.109 0.9938,-0.139 1.4285,-0.376 0.6454,-0.277 1.2543,-0.681 1.8054,-1.198 1.0461,-0.993 2.059,-2.388 1.9971,-4.283 -0.0228,-0.856 -0.2042,-1.712 -0.4442,-2.536 1.3125,-0.711 3.0156,-1.097 5.1852,-0.767 4.6463,0.716 5.5464,4.487 5.367,6.057 -0.1794,1.57 -1.1584,2.444 -1.4846,2.704 -0.3262,0.259 -0.4267,0.356 -0.4021,0.551 0.041,0.282 0.1913,0.271 0.4669,0.207 0.3842,-0.086 2.4401,-1.272 2.5395,-4.185 0.1431,-3.682 -2.5753,-7.739 -7.4096,-7.719 z m -35.8681,15.584 c -1.54086,2.173 -3.69675,2.99 -4.62073,2.295 -0.99144,-0.752 -0.59076,-3.955 1.30941,-6.27 1.15566,-1.405 2.64413,-2.701 3.63122,-3.5 0.2259,-0.173 0.5521,-0.432 0.9536,-0.745 0.067,-0.054 0.1004,-0.075 0.1004,-0.075 0.0753,-0.065 0.1589,-0.119 0.2426,-0.184 0.6835,3.294 0.0089,6.195 -1.6165,8.476 z m 11.2419,-9.872 c -0.5387,1.699 -1.6761,6.029 -2.36,5.8 -0.5838,-0.197 -0.9342,-3.501 -0.0993,-6.748 0.4216,-1.634 1.3116,-3.582 1.8395,-4.339 0.8454,-1.221 1.7731,-1.609 1.9889,-1.121 0.2905,0.64 -1.0324,5.348 -1.3691,6.408 z m 9.2512,5.763 c -0.2258,0.151 -0.4347,0.248 -0.5347,0.172 -0.075,-0.054 0.0925,-0.26 0.0925,-0.26 0,0 1.1646,-1.61 1.6256,-2.346 0.2683,-0.432 0.5785,-0.941 0.913,-1.503 -1e-4,0.054 0.0081,0.108 0.0079,0.173 -0.0159,1.939 -1.4543,3.246 -2.1068,3.764 z m 7.1496,-2.094 c -0.1665,-0.152 -0.1402,-0.661 0.4232,-2.241 0.2187,-0.617 0.7214,-1.655 1.593,-2.65 0.0974,0.378 0.1499,0.772 0.1556,1.171 -0.0147,2.436 -1.3619,3.343 -2.1718,3.72 z"
             id="path5265" />
        </g>
      </g>
    </g>
  </g>
  <path
     fill="#FBEC5D"
     d="M606.135 464L606 515.99L659.426 516.121L659.561 464.132L606.135 464ZM635.104 504.619C635.091 509.679 632.032 511.981 627.584 511.97C623.565 511.96 621.245 509.935 620.058 507.483L624.155 505.091C624.939 506.451 625.651 507.601 627.38 507.606C629.026 507.61 630.077 506.986 630.083 504.537L630.127 487.93L635.147 487.943L635.104 504.619ZM646.962 512.017C642.3 512.006 639.288 509.84 637.829 507.005L641.925 504.717C642.994 506.426 644.398 507.694 646.866 507.7C648.941 507.705 650.28 506.699 650.283 505.295C650.288 503.624 648.93 503.028 646.631 502.036L645.38 501.511C641.758 500.005 639.366 498.108 639.377 494.127C639.386 490.46 642.267 487.682 646.739 487.693C649.935 487.701 652.222 488.786 653.861 491.621L649.943 494.049C649.088 492.549 648.159 491.955 646.716 491.952C645.25 491.948 644.317 492.851 644.314 494.035C644.31 495.497 645.239 496.091 647.395 497.013L648.646 497.539C652.91 499.325 655.303 501.152 655.292 505.237C655.281 509.624 651.721 512.029 646.962 512.017Z"
     id="path5267" />
  <path
     fill="#CC6C06"
     d="M325.04 660.104C330.831 660.502 332.069 660.366 332.066 661.507C332.06 663.828 324.243 663.816 324.249 661.664C324.251 661.073 324.644 660.574 325.04 660.104V660.104ZM328.408 646.576C324.557 646.567 324.37 651.727 328.305 651.737C332.182 651.746 332.1 646.585 328.408 646.576V646.576ZM366.546 630.702L366.44 671.551C366.436 673.028 365.83 674.444 364.753 675.486C363.677 676.528 362.22 677.111 360.702 677.107L318.724 677.004C317.206 677 315.752 676.41 314.681 675.362C313.61 674.315 313.011 672.897 313.014 671.419L313.121 630.57C313.125 629.093 313.731 627.678 314.808 626.636C315.884 625.594 317.341 625.01 318.859 625.014L360.837 625.118C362.355 625.121 363.809 625.712 364.88 626.759C365.951 627.806 366.55 629.225 366.546 630.702V630.702ZM339.455 638.679C339.451 640.36 340.447 641.336 342.174 641.34C343.932 641.345 344.935 640.374 344.939 638.692C344.944 637.011 343.948 636.101 342.19 636.096C340.463 636.092 339.459 636.999 339.455 638.679ZM336.839 643.974L330.93 643.96C327.951 643.192 321.205 643.373 321.19 649.361C321.184 651.543 322.301 653.077 323.784 653.79C321.908 655.453 321.02 656.237 321.017 657.351C321.015 658.148 321.346 658.886 322.345 659.299C321.282 660.271 320.672 660.975 320.668 662.303C320.664 664.632 322.751 665.989 328.236 666.003C333.509 666.016 336.573 664.107 336.582 660.716C336.593 656.461 333.226 656.609 325.292 656.118L326.296 654.562C328.321 655.117 335.141 655.307 335.156 649.66C335.159 648.304 334.586 647.359 334.043 646.678L336.831 646.479L336.839 643.974ZM346.864 656.746L345.314 656.536C344.859 656.475 344.829 656.418 344.83 655.944L344.862 643.706L338.589 643.691L338.25 646.077C340.127 646.726 340.276 646.646 340.275 647.262L340.252 655.936C340.25 656.588 340.214 656.467 338.223 656.728L338.217 659.056L346.853 659.077L346.864 656.746ZM358.843 657.955L358.031 655.357C353.145 657.128 353.521 653.905 353.522 653.404L353.54 646.357L358.054 646.369L358.062 643.42L353.79 643.409C353.448 643.408 353.551 643.701 353.563 638.926L350.68 638.919C350.339 642.132 349.275 643.427 346.613 643.715L346.606 646.34C349.047 646.346 348.97 646.248 348.969 646.641L348.949 654.366C348.94 657.699 350.299 659.117 353.905 659.126C355.629 659.13 357.538 658.575 358.843 657.955V657.955Z"
     id="path5271" />
  <path
     fill="#00bfff"
     d="m 368.33629,370.43575 c -0.9109,-3.517 -2.638,-6.169 -6.3172,-6.169 h -4.7438 v 5.395 c 0,4.189 -3.6909,7.718 -7.9024,7.718 h -12.6344 c -3.4544,0 -6.3172,2.846 -6.3172,6.182 v 11.588 c 0,3.301 2.9811,5.237 6.3172,6.181 3.9985,1.127 7.8432,1.332 12.6344,0 3.1822,-0.888 6.3172,-2.675 6.3172,-6.181 v -4.633 h -12.6226 v -1.548 h 18.9516 c 3.6792,0 5.0396,-2.47 6.3172,-6.17 1.325,-3.814 1.2658,-7.479 0,-12.363 z m -18.1708,23.166 c 1.3131,0 2.3778,1.036 2.3778,2.311 0,1.286 -1.0647,2.322 -2.3778,2.322 -1.3013,0 -2.3778,-1.047 -2.3778,-2.322 0.0118,-1.287 1.0765,-2.311 2.3778,-2.311 z m -14.0067,-17.747 h 12.6344 c 3.5135,0 6.3172,-2.789 6.3172,-6.181 v -11.6 c 0,-3.301 -2.8865,-5.772 -6.3172,-6.329 -4.2351,-0.672 -8.837,-0.638 -12.6344,0.011 -5.3472,0.911 -6.3172,2.812 -6.3172,6.329 v 4.633 h 12.6462 v 1.549 h -17.39 c -3.6792,0 -6.8969,2.128 -7.9025,6.169 -1.1593,4.634 -1.2066,7.525 0,12.363 0.8991,3.597 3.0403,6.17 6.7195,6.17 h 4.3416 v -5.555 c 0,-4.019 3.6081,-7.559 7.9024,-7.559 z m -0.7926,-16.233 c -1.3131,0 -2.3778,-1.036 -2.3778,-2.311 0.0118,-1.286 1.0647,-2.322 2.3778,-2.322 1.3013,0 2.3778,1.047 2.3778,2.322 0,1.275 -1.0647,2.311 -2.3778,2.311 z"
     id="path5275" />
  <path
     fill="#61dbfb"
     d="m 165.05285,598.71511 c -0.559,-0.205 -1.118,-0.398 -1.677,-0.58 0.093,-0.422 0.176,-0.843 0.259,-1.264 1.273,-6.784 0.435,-12.237 -2.391,-14.036 -2.723,-1.718 -7.163,0.069 -11.656,4.372 -0.445,0.421 -0.88,0.865 -1.294,1.309 -0.279,-0.296 -0.569,-0.592 -0.859,-0.877 -4.71,-4.599 -9.43,-6.534 -12.256,-4.724 -2.712,1.73 -3.52,6.864 -2.381,13.284 0.114,0.638 0.238,1.264 0.383,1.901 -0.663,0.205 -1.315,0.433 -1.926,0.672 -5.527,2.106 -9.492,5.43 -9.492,8.868 0,3.551 4.223,7.114 9.969,9.277 0.465,0.171 0.931,0.342 1.407,0.49 -0.155,0.683 -0.289,1.354 -0.414,2.049 -1.087,6.317 -0.238,11.326 2.474,13.045 2.795,1.776 7.495,-0.046 12.07,-4.451 0.363,-0.353 0.725,-0.717 1.087,-1.104 0.456,0.489 0.932,0.956 1.408,1.411 4.43,4.189 8.809,5.886 11.511,4.167 2.795,-1.776 3.706,-7.16 2.526,-13.717 -0.093,-0.501 -0.197,-1.013 -0.311,-1.537 0.331,-0.102 0.652,-0.216 0.973,-0.33 5.973,-2.174 10.3,-5.692 10.3,-9.3 0,-3.449 -4.079,-6.796 -9.71,-8.925 z m -14.005,-9.664 c 3.85,-3.688 7.442,-5.134 9.078,-4.098 1.749,1.104 2.422,5.566 1.325,11.429 -0.073,0.387 -0.145,0.762 -0.238,1.138 -2.298,-0.569 -4.627,-0.979 -6.967,-1.207 -1.346,-2.117 -2.815,-4.143 -4.41,-6.044 0.404,-0.421 0.798,-0.82 1.212,-1.218 z m -11.977,24.497 c 0.528,0.99 1.066,1.98 1.635,2.948 -1.614,-0.194 -3.219,-0.478 -4.803,-0.854 0.456,-1.639 1.025,-3.335 1.688,-5.065 0.476,1.001 0.962,1.992 1.48,2.971 z m -3.137,-13.695 c 1.491,-0.364 3.075,-0.66 4.721,-0.887 -0.549,0.944 -1.087,1.912 -1.595,2.891 -0.507,0.968 -1.004,1.958 -1.469,2.96 -0.653,-1.696 -1.201,-3.358 -1.657,-4.964 z m 2.837,7.844 c 0.683,-1.571 1.428,-3.108 2.215,-4.622 0.787,-1.514 1.635,-2.982 2.526,-4.428 1.552,-0.125 3.136,-0.194 4.751,-0.194 1.615,0 3.209,0.069 4.751,0.194 0.88,1.434 1.719,2.903 2.516,4.405 0.797,1.503 1.542,3.04 2.246,4.599 -0.693,1.571 -1.439,3.119 -2.236,4.644 -0.787,1.514 -1.625,2.983 -2.505,4.44 -1.542,0.125 -3.147,0.182 -4.772,0.182 -1.625,0 -3.199,-0.057 -4.72,-0.159 -0.901,-1.446 -1.75,-2.926 -2.547,-4.44 -0.797,-1.514 -1.532,-3.051 -2.225,-4.621 z m 18.695,5.828 c 0.527,-1.002 1.024,-2.015 1.511,-3.039 0.662,1.65 1.242,3.323 1.749,5.042 -1.604,0.399 -3.229,0.706 -4.865,0.911 0.559,-0.956 1.087,-1.935 1.605,-2.914 z m 1.49,-8.708 c -0.486,-1.002 -0.983,-2.004 -1.501,-2.983 -0.507,-0.967 -1.035,-1.924 -1.584,-2.868 1.667,0.227 3.261,0.535 4.752,0.91 -0.476,1.685 -1.035,3.324 -1.667,4.941 z m -10.672,-12.807 c 1.087,1.298 2.111,2.664 3.064,4.076 -2.05,-0.103 -4.11,-0.103 -6.159,0 1.014,-1.469 2.06,-2.835 3.095,-4.076 z m -12.008,-6.978 c 1.739,-1.115 5.6,0.479 9.668,4.44 0.259,0.25 0.518,0.524 0.787,0.797 -1.605,1.901 -3.085,3.927 -4.441,6.044 -2.339,0.228 -4.658,0.626 -6.956,1.184 -0.135,-0.58 -0.249,-1.172 -0.362,-1.764 -0.973,-5.51 -0.332,-9.665 1.304,-10.701 z m -2.536,30.007 c -0.435,-0.137 -0.859,-0.285 -1.284,-0.444 -2.205,-0.763 -4.71,-1.969 -6.521,-3.552 -1.046,-0.797 -1.75,-2.026 -1.946,-3.403 0,-2.083 3.271,-4.747 7.991,-6.557 0.59,-0.228 1.19,-0.433 1.791,-0.626 0.704,2.47 1.553,4.895 2.536,7.24 -0.994,2.379 -1.853,4.838 -2.567,7.342 z m 12.07,11.155 c -1.708,1.719 -3.685,3.085 -5.839,4.019 -1.149,0.603 -2.474,0.66 -3.654,0.148 -1.646,-1.047 -2.329,-5.066 -1.397,-10.473 0.114,-0.637 0.238,-1.275 0.383,-1.901 2.319,0.547 4.658,0.922 7.029,1.116 1.366,2.128 2.867,4.166 4.471,6.078 -0.331,0.353 -0.662,0.695 -0.993,1.013 z m 2.536,-2.766 c -1.056,-1.252 -2.112,-2.641 -3.137,-4.132 0.994,0.046 2.019,0.069 3.054,0.069 1.066,0 2.112,-0.023 3.147,-0.08 -0.952,1.445 -1.977,2.823 -3.064,4.143 z m 13.529,3.415 c -0.093,1.389 -0.714,2.687 -1.708,3.563 -1.646,1.048 -5.155,-0.318 -8.943,-3.893 -0.435,-0.41 -0.87,-0.854 -1.315,-1.309 1.584,-1.924 3.043,-3.961 4.368,-6.101 2.371,-0.217 4.731,-0.615 7.06,-1.196 0.104,0.467 0.197,0.934 0.28,1.389 0.507,2.459 0.59,5.02 0.258,7.547 z m 1.884,-12.237 c -0.29,0.103 -0.579,0.205 -0.88,0.296 -0.724,-2.481 -1.614,-4.906 -2.639,-7.262 0.994,-2.323 1.832,-4.713 2.536,-7.16 0.538,0.17 1.056,0.352 1.553,0.535 4.823,1.821 8.208,4.53 8.208,6.602 0,2.231 -3.612,5.111 -8.778,6.989 z m -15.496,-1.707 c 2.619,0 4.741,-2.334 4.741,-5.214 0,-2.88 -2.122,-5.213 -4.741,-5.213 -2.619,0 -4.741,2.333 -4.741,5.213 0,2.88 2.122,5.214 4.741,5.214 z"
     id="path5277" />
  <path
     fill="#68a063"
     d="m 543.72143,623.52605 c -0.795,0 -1.601,-0.182 -2.301,-0.526 l -7.319,-3.694 c -1.091,-0.526 -0.558,-0.708 -0.202,-0.81 1.459,-0.435 1.756,-0.526 3.31,-1.285 0.166,-0.081 0.379,-0.051 0.545,0.041 l 5.623,2.843 c 0.202,0.102 0.486,0.102 0.676,0 l 21.91,-10.788 c 0.201,-0.101 0.332,-0.303 0.332,-0.506 v -21.576 c 0,-0.212 -0.131,-0.404 -0.344,-0.516 l -21.898,-10.778 c -0.201,-0.101 -0.474,-0.101 -0.676,0 l -21.885,10.788 c -0.214,0.102 -0.344,0.304 -0.344,0.516 v 21.566 c 0,0.203 0.13,0.405 0.344,0.496 l 6.002,2.955 c 3.262,1.387 5.255,-0.243 5.255,-1.892 v -21.293 c 0,-0.303 0.284,-0.536 0.64,-0.536 h 2.776 c 0.344,0 0.641,0.233 0.641,0.536 v 21.303 c 0,3.704 -2.373,5.829 -6.489,5.829 -1.269,0 -2.266,0 -5.041,-1.174 l -5.742,-2.823 c -1.423,-0.699 -2.301,-2.004 -2.301,-3.411 v -21.566 c 0,-1.396 0.878,-2.712 2.301,-3.41 l 21.886,-10.788 c 1.388,-0.668 3.226,-0.668 4.602,0 l 21.91,10.798 c 1.423,0.698 2.301,2.004 2.301,3.41 v 21.566 c 0,1.397 -0.878,2.702 -2.301,3.411 l -21.91,10.788 c -0.699,0.344 -1.494,0.526 -2.301,0.526 z m 17.687,-21.262 c 0,-4.038 -3.203,-5.111 -9.929,-5.87 -6.809,-0.769 -7.497,-1.164 -7.497,-2.52 0,-1.123 0.581,-2.621 5.623,-2.621 4.496,0 6.156,0.83 6.844,3.421 0.06,0.243 0.32,0.425 0.617,0.425 h 2.847 c 0.178,0 0.344,-0.061 0.463,-0.172 0.118,-0.112 0.178,-0.263 0.166,-0.415 -0.439,-4.463 -3.915,-6.538 -10.937,-6.538 -6.252,0 -9.976,2.247 -9.976,6.022 0,4.088 3.713,5.222 9.703,5.728 7.177,0.597 7.734,1.497 7.734,2.702 0,2.084 -1.969,2.975 -6.583,2.975 -5.801,0 -7.07,-1.245 -7.497,-3.704 -0.048,-0.263 -0.309,-0.455 -0.629,-0.455 h -2.835 c -0.356,0 -0.629,0.243 -0.629,0.536 0,3.147 2.005,6.902 11.601,6.902 6.928,-0.01 10.914,-2.348 10.914,-6.416 z"
     id="path5279" />
  <path
     fill="#cc3534"
     d="m 341.45815,280.55416 h -3.73269 v -9.59994 h 3.73269 z m 33.59757,-19.19877 v 28.7976 h -33.59757 v 4.79997 h -14.93188 v -4.79997 h -18.66569 v -28.7976 z m -48.52945,4.79997 h -14.933 v 19.19877 h 7.4665 v -14.39991 h 3.73269 v 14.39991 h 3.73381 z m 18.66457,0 h -14.93188 v 23.99763 h 7.4665 v -4.79886 h 7.46538 z m 26.13219,0 h -22.39838 v 19.19877 h 7.46538 v -14.39991 h 3.73381 v 14.39991 h 3.73269 v -14.39991 h 3.73269 v 14.39991 h 3.73381 z"
     id="path5281"
     style="stroke-width:1.11992" />
  <g
     fill="none"
     stroke="#ffffff"
     stroke-width="12.465"
     stroke-linecap="round"
     stroke-linejoin="round"
     id="g7697"
     transform="matrix(0.12423717,0,0,0.12423762,605.75011,328.95225)">
    <path
       d="m 323.205,324.227 c 2.833,-23.6 1.984,-27.062 19.563,-23.239 l 4.463,0.392 c 13.517,0.615 31.199,-2.174 41.587,-7 22.362,-10.376 35.622,-27.7 13.572,-23.148 -50.297,10.376 -53.755,-6.655 -53.755,-6.655 C 401.746,185.774 423.948,85.741 404.784,61.255 352.514,-5.534 262.036,26.05 260.522,26.87 l -0.482,0.09 c -9.938,-2.063 -21.06,-3.295 -33.554,-3.497 -22.761,-0.374 -40.032,5.967 -53.133,15.904 0,0 -161.408,-66.498 -153.899,83.628 1.597,31.936 45.777,241.655 98.47,178.31 19.259,-23.163 37.871,-42.748 37.871,-42.748 9.242,6.14 20.307,9.272 31.912,8.147 l 0.897,-0.765 c -0.281,2.876 -0.157,5.69 0.359,9.02 -13.572,15.166 -9.584,17.83 -36.723,23.415 -27.457,5.66 -11.326,15.734 -0.797,18.367 12.768,3.193 42.305,7.716 62.268,-20.224 l -0.795,3.188 c 5.325,4.26 4.965,30.62 5.72,49.452 0.756,18.834 2.017,36.41 5.856,46.771 3.839,10.36 8.369,37.05 44.036,29.406 29.809,-6.388 52.6,-15.582 54.677,-101.107"
       fill="#000000"
       stroke="#000000"
       stroke-width="37.395"
       stroke-linecap="butt"
       stroke-linejoin="miter"
       id="path7679" />
    <path
       d="m 402.395,271.23 c -50.302,10.376 -53.76,-6.655 -53.76,-6.655 53.111,-78.808 75.313,-178.843 56.153,-203.326 -52.27,-66.785 -142.752,-35.2 -144.262,-34.38 l -0.486,0.087 c -9.938,-2.063 -21.06,-3.292 -33.56,-3.496 -22.761,-0.373 -40.026,5.967 -53.127,15.902 0,0 -161.411,-66.495 -153.904,83.63 1.597,31.938 45.776,241.657 98.471,178.312 19.26,-23.163 37.869,-42.748 37.869,-42.748 9.243,6.14 20.308,9.272 31.908,8.147 l 0.901,-0.765 c -0.28,2.876 -0.152,5.69 0.361,9.02 -13.575,15.166 -9.586,17.83 -36.723,23.415 -27.459,5.66 -11.328,15.734 -0.796,18.367 12.768,3.193 42.307,7.716 62.266,-20.224 l -0.796,3.188 c 5.319,4.26 9.054,27.711 8.428,48.97 -0.626,21.258 -1.044,35.853 3.147,47.253 4.191,11.4 8.368,37.05 44.042,29.406 29.809,-6.388 45.256,-22.942 47.405,-50.555 1.525,-19.63 4.976,-16.729 5.194,-34.28 l 2.768,-8.309 c 3.192,-26.61 0.507,-35.196 18.872,-31.203 l 4.463,0.392 c 13.517,0.615 31.208,-2.174 41.591,-7 22.358,-10.376 35.618,-27.7 13.573,-23.148 z"
       fill="#336791"
       stroke="none"
       id="path7681" />
    <path
       d="m 215.866,286.484 c -1.385,49.516 0.348,99.377 5.193,111.495 4.848,12.118 15.223,35.688 50.9,28.045 29.806,-6.39 40.651,-18.756 45.357,-46.05 3.466,-20.083 10.148,-75.855 11.005,-87.282 M 173.104,38.256 c 0,0 -161.521,-66.016 -154.012,84.11 1.597,31.937 45.779,241.663 98.473,178.315 19.256,-23.166 36.671,-41.335 36.671,-41.335 M 260.349,26.207 c -5.591,1.753 89.848,-34.889 144.087,34.417 19.159,24.484 -3.043,124.52 -56.153,203.33"
       id="path7683" />
    <path
       d="m 348.282,263.953 c 0,0 3.461,17.036 53.764,6.653 22.04,-4.552 8.776,12.774 -13.577,23.155 -18.345,8.514 -59.474,10.696 -60.146,-1.069 -1.729,-30.355 21.647,-21.133 19.96,-28.739 -1.525,-6.85 -11.979,-13.573 -18.894,-30.338 -6.037,-14.633 -82.796,-126.849 21.287,-110.183 3.813,-0.789 -27.146,-99.002 -124.553,-100.599 -97.385,-1.597 -94.19,119.762 -94.19,119.762"
       stroke-linejoin="bevel"
       id="path7685" />
    <path
       d="m 188.604,274.334 c -13.577,15.166 -9.584,17.83 -36.723,23.417 -27.459,5.66 -11.326,15.733 -0.797,18.365 12.768,3.195 42.307,7.718 62.266,-20.229 6.078,-8.509 -0.036,-22.086 -8.385,-25.547 -4.034,-1.67 -9.428,-3.765 -16.361,3.994 z"
       id="path7687" />
    <path
       d="m 187.715,274.07 c -1.368,-8.918 2.93,-19.529 7.536,-31.943 6.922,-18.626 22.893,-37.255 10.117,-96.339 -9.523,-44.029 -73.396,-9.163 -73.436,-3.193 -0.039,5.968 2.889,30.26 -1.067,58.548 -5.162,36.913 23.488,68.132 56.479,64.938"
       id="path7689" />
    <path
       d="m 172.517,141.7 c -0.288,2.04 3.733,7.48 8.976,8.207 5.234,0.73 9.714,-3.522 9.998,-5.559 0.284,-2.039 -3.732,-4.285 -8.977,-5.015 -5.237,-0.73 -9.719,0.333 -9.996,2.367 z"
       fill="#ffffff"
       stroke-width="4.155"
       stroke-linecap="butt"
       stroke-linejoin="miter"
       id="path7691" />
    <path
       d="m 331.941,137.543 c 0.284,2.04 -3.732,7.48 -8.976,8.207 -5.238,0.73 -9.718,-3.522 -10.005,-5.559 -0.277,-2.039 3.74,-4.285 8.979,-5.015 5.239,-0.73 9.718,0.333 10.002,2.368 z"
       fill="#ffffff"
       stroke-width="2.078"
       stroke-linecap="butt"
       stroke-linejoin="miter"
       id="path7693" />
    <path
       d="m 350.676,123.432 c 0.863,15.994 -3.445,26.888 -3.988,43.914 -0.804,24.748 11.799,53.074 -7.191,81.435"
       id="path7695" />
  </g>
  <path
     d="m 203.10527,123.54231 c -2.52133,-1.98365 -5.21193,-3.8846 -7.05011,-6.56308 -3.86901,-4.72316 -6.84707,-10.19052 -8.8831,-15.93711 -1.23122,-3.73697 -1.65246,-7.743218 -3.24041,-11.33516 -1.65895,-2.609646 0.28573,-5.460429 3.14387,-6.289472 1.27149,-0.245033 3.50882,-1.445522 0.80826,-0.586607 -2.42175,1.77584 -2.6551,-1.613496 -0.1723,-1.828224 1.69445,-0.224686 2.31829,-1.611331 1.73818,-2.859441 -1.81957,-1.187069 4.41059,-2.489294 1.27538,-4.259939 -3.26379,-3.522676 4.56731,-4.200629 2.63476,-0.199577 -0.46193,3.076334 5.47384,-0.564961 4.09543,2.988019 1.40049,1.706573 5.24266,0.389195 5.14612,2.781948 2.03949,0.140266 2.73953,1.855065 4.65217,1.987106 1.98537,0.896145 5.58078,1.601373 6.25527,3.836975 -1.96806,1.557649 -6.52411,-3.217899 -6.74404,1.094424 0.59527,6.371726 0.44331,12.935236 2.77372,19.002618 1.10222,3.67333 3.77594,6.56481 6.18904,9.42642 2.31006,2.80186 5.43878,4.77554 8.62811,6.43623 2.7971,1.31911 5.81239,2.19317 8.86145,2.74298 1.23599,-0.9455 3.41921,-4.46125 5.347,-2.97979 0.0931,1.66761 -3.82658,3.48371 -0.18399,3.29929 2.14079,-0.64592 3.62398,1.65375 5.38597,-0.42123 1.62345,1.92303 6.7475,-1.22777 5.59247,2.70272 -1.56241,1.00784 -3.84044,0.39872 -5.40459,1.7858 -2.5789,-1.28881 -4.63225,1.15157 -7.48822,0.84376 -3.17071,0.56799 -6.3977,0.79657 -9.61214,0.80133 -5.27471,-0.41603 -10.66067,-0.5918 -15.67822,-2.42825 -2.82741,-0.82168 -5.58555,-2.43171 -8.07008,-4.04174 z m 4.45432,1.93125 c 2.75987,1.19227 5.45913,2.45034 8.48438,2.83087 4.79936,0.66627 9.75587,1.69445 14.57211,0.75761 -2.17975,-0.98402 -4.43397,0.38227 -6.6055,-0.70349 -2.60402,0.55976 -5.39939,-0.14373 -8.048,-0.4905 -3.01009,-1.34076 -6.26003,-2.26244 -9.07921,-4.00452 -3.52441,-1.28664 1.8213,1.65073 2.77329,1.88927 2.20184,1.24941 -2.42176,-0.64116 -3.0746,-1.16023 -1.84468,-1.03511 -2.07975,-0.81865 -0.18226,0.23162 0.38184,0.22338 0.75934,0.45846 1.15979,0.64937 z m -5.25262,-3.71186 c 2.67545,0.99096 -0.0117,-1.8806 -1.23599,-1.7148 -0.54288,-0.94203 -2.07499,-1.5373 -0.99442,-2.04295 -1.94295,0.67493 -2.03603,-2.56548 -2.94905,-2.10183 -2.05638,-0.64938 -0.80004,-2.94949 -3.25037,-4.36297 -0.22339,-1.48838 -2.43345,-2.77849 -3.13695,-5.02275 -0.31127,-1.14983 -2.49795,-4.44912 -1.15503,-1.37842 1.14291,2.95599 3.15383,5.48944 4.82793,8.01769 1.29877,2.40791 2.83433,4.92621 5.20025,6.42801 0.7983,0.76584 1.5676,1.93775 2.69363,2.17802 z m -7.70426,-8.46057 c 0.0926,-0.40434 0.48877,0.87407 0,0 z m 10.90917,9.64764 c 0.5918,-0.26538 -0.85242,-0.33465 0,0 z m 1.45072,0.52946 c -0.15023,-0.73077 -0.66281,0.40911 0,0 z m 1.81826,0.75761 c 0.86411,-0.82384 -1.33426,-0.5195 0,0 z m 3.11487,1.73645 c 0.526,-0.77623 -1.68277,-0.29222 0,0 z m -5.98123,-4.16989 c 1.34248,-0.86931 -1.73688,-0.0121 0,0 z m 1.36283,0.67968 c -0.039,-0.45846 -0.4853,0.20607 0,0 z m 6.8133,4.25302 c 1.09573,0.6918 6.39771,1.51522 3.07807,0.28399 -0.55674,0.11689 -6.1557,-1.58449 -3.07807,-0.28399 z m -10.81608,-8.42507 c -0.1065,-0.45976 -1.70138,-0.50912 0,0 z m 3.17071,1.8503 c 0.82687,-0.57665 -1.71307,-0.44504 0,0 z m 2.66852,1.63514 c 1.18534,-0.44634 -1.92087,-0.44807 0,0 z m -7.1315,-4.8907 c 1.28534,0.98576 5.18509,0.12684 1.96849,-0.58834 -1.46284,-0.77969 -4.7604,-1.31392 -2.51267,0.47015 z m 8.93938,5.45566 c 0.53595,-0.91173 -2.246,-0.52123 0,0 z m -2.71615,-2.15811 c 3.14214,0.88792 -2.64298,-1.98883 -0.77579,-0.32815 l 0.4143,0.18789 z m 5.44571,3.14734 c 2.97633,0.0286 -2.68887,-0.41084 0,0 z m -12.81359,-8.16662 c -0.11688,-0.55457 -0.7338,0.0459 0,0 z m 17.84802,10.99056 c 0.0792,-1.00091 -0.97104,0.74592 0,0 z m -12.76812,-7.88046 c -0.18096,-0.52773 -0.92992,-0.0221 0,0 z m -4.79763,-3.45817 c 1.7083,-0.10303 -2.34037,-0.75241 0,0 z m -5.68382,-3.67333 c -0.21299,-0.81995 -1.85852,-1.4728 0,0 z m 14.92061,9.46884 c -0.31256,-0.35716 -0.14719,0.0775 0,0 z m 9.28572,5.69897 c -0.0286,-0.54635 -0.50565,0.20607 0,0 z m -10.1074,-6.54792 c 0.16754,-0.7035 -1.45764,-0.21343 0,0 z m -6.9185,-4.38506 c 1.27192,-0.1355 -2.03776,-0.85935 0,0 z m 11.70271,7.27177 c 1.98191,-0.78489 -1.93126,-0.38227 0,0 z m -6.08643,-4.13136 c 2.28279,0.29395 -2.71745,-1.55419 -0.50219,-0.16581 z m 7.93457,4.87858 c 2.13256,-1.27322 1.42907,2.98499 3.61748,0.36019 2.15768,-1.57583 -1.86372,1.94814 0.79484,0.28097 1.92433,-1.28708 4.76516,0.61041 6.55962,1.22776 1.2901,-0.0628 2.54514,1.11607 3.86901,0.39872 2.54687,-0.68661 -4.98162,-1.0178 -3.00837,-2.23387 -2.33041,0.67838 -4.0517,-0.80826 -5.19851,-2.30141 -2.61441,-0.60392 -5.63619,-1.93992 -6.94188,-4.25474 -0.53249,-0.86758 0.768,0.12338 -0.45976,-1.29703 -1.57454,-1.4005 -2.36072,-2.99192 -3.41791,-4.69459 -1.26326,-0.6732 -1.41219,-2.65684 -1.53903,-0.0658 0.0104,-1.63558 -1.52518,-2.73649 -1.90053,-2.27976 -0.007,-1.57454 1.6438,-0.78489 0.48877,-1.94988 -0.2485,-1.63211 -1.06715,-3.33305 -1.31261,-5.17643 -0.38184,-0.88792 -0.0541,-2.790175 -1.30526,-0.77969 -0.455,2.12564 -0.15066,-2.610945 0.55803,-1.050267 0.92992,-1.592715 -0.33508,-1.40526 -0.38573,-1.185336 0.60566,-1.344219 0.384,-3.2521 -0.15888,-2.524794 0.32296,-1.425607 0.51085,-5.245699 -0.48184,-4.567745 0.60176,-1.491412 1.14161,-6.821964 -1.47323,-4.788969 -1.05849,0.01515 -2.89321,0.384001 -3.75905,0.81519 2.71744,1.498338 -0.27404,0.541151 -1.38188,0.302611 -0.14373,1.386645 -1.23945,0.787916 -2.60921,0.801337 2.18841,0.270575 -1.06542,2.237334 -2.3183,1.473229 -1.63037,0.777958 1.40527,2.722638 0.032,3.324397 0.16927,0.904804 -2.49623,-0.327721 -2.28799,1.765884 -1.58146,-0.666698 -0.21646,2.482367 0.57492,1.416949 2.6906,0.729038 1.89403,2.38799 1.96156,3.965554 -0.43812,0.91822 -2.1646,-2.159409 -0.384,-2.017411 -1.40526,-2.281492 -1.55375,-0.825147 -2.72091,0.235076 -0.27057,0.07619 2.97633,1.508295 0.93858,2.215255 1.79272,0.2775 1.8451,1.84684 2.21049,2.83953 1.07711,1.12256 0.85545,-1.23989 2.14599,0.10996 -0.81693,-1.20266 -4.32272,-3.38761 -1.50007,-2.68714 -0.0152,-1.209148 -0.51085,-2.184951 0.35499,-2.161573 0.85762,-1.550722 -0.89788,3.825283 1.03338,1.853763 0.53423,-0.23334 0.668,-1.55245 1.62865,0.12512 1.39487,1.37322 0.50392,2.36721 -1.46457,1.10914 0.35153,1.19573 2.63302,1.62172 2.20357,3.49064 0.45456,1.6438 1.09052,1.03814 1.64509,0.94333 0.43466,1.59661 0.68185,0.42297 0.7022,-0.33811 1.99014,0.42643 1.52345,1.60311 2.14729,2.42522 1.37149,0.61865 -1.9633,-4.19586 0.39093,-1.44768 2.47717,2.23733 0.92991,3.17071 -1.29357,2.81225 1.40699,-0.11343 1.85983,1.90269 3.62051,1.83169 1.60484,0.7641 2.69234,3.69671 -0.0745,2.47544 -0.95891,-0.86584 -4.35648,-1.93299 -1.58102,-0.28746 2.56029,1.18707 4.59632,1.89576 7.06699,3.38587 1.76719,1.26153 2.53129,2.70705 3.20102,2.99321 -1.48622,0.70999 -4.4777,-0.56669 -2.25595,-0.95718 -1.38664,-0.25196 -2.94559,-0.95373 -1.61826,0.77276 1.12949,0.94377 3.99932,0.84376 4.51537,0.95026 -0.43639,0.96065 -1.18534,1.03684 0.0169,1.11131 -1.34118,0.71518 0.43119,0.82688 0.55458,1.23425 z m -2.74299,-7.74668 c -0.81692,-0.85415 -1.02819,-2.45206 -0.14546,-1.06239 0.45327,0.18269 1.44942,2.61311 0.14546,1.06239 z m 8.93418,5.67515 c 0.50912,-0.0338 0.0152,0.38704 0,0 z M 212.136,113.57517 c -0.0325,-1.29053 0.29395,0.99572 0,0 z m -0.88792,-1.19399 c -1.02819,-1.98364 1.29356,0.5615 0,0 z m -10.76241,-7.42719 c 0.60392,-0.16104 0.29785,1.03122 0,0 z m 8.56577,4.64178 c 0.37015,-1.39184 0.43465,1.16715 0,0 z m -6.05093,-4.20756 c -0.426,-0.76757 0.89138,0.72081 0,0 z m 5.19158,1.66415 c -0.97234,-2.17802 0.69008,-1.19053 0.21646,0.35673 z m -8.9541,-5.97128 c -0.43465,-0.71518 -1.1533,-2.812249 -0.92169,-3.452971 0.20781,1.043339 2.21699,4.488091 0.98403,1.427339 -1.3611,-2.565488 1.62865,0.831641 1.93646,1.472792 0.14373,0.63597 -0.84073,-0.17403 -0.17447,1.31911 -1.21564,-1.69964 -0.71692,0.93858 -1.82433,-0.76627 z m -2.76679,-1.907444 c 0.11342,-1.662416 0.63249,1.139884 0,0 z m 1.24464,0.429457 c 0.59354,-1.254604 1.00611,1.748567 0,0 z m -2.99494,-2.316559 c -1.02992,-1.025156 -1.77584,-1.96849 0.0489,-0.63596 0.70176,0.02684 -1.56241,-2.145988 0.16927,-0.690076 1.81957,0.331618 0.89788,2.984988 -0.21819,1.326036 z m 1.5728,-0.04069 c 0.59873,-0.593534 0.31776,0.583577 0,0 z m 0.96888,0.309538 c -0.90827,-1.699646 1.10091,0.713453 0,0 z m -1.92434,-1.838181 c -2.99494,-2.667224 3.76252,1.393139 0.48877,0.49353 z m 8.58222,4.985083 c -1.29703,-0.776228 -0.34504,-5.470387 0.0983,-2.260713 1.2598,-0.407811 -0.0697,1.658953 0.86887,1.638603 -0.14676,1.30353 -0.56799,1.77238 -0.96714,0.62211 z m 3.17418,1.87714 c 0.12684,-1.41521 0.26711,0.96758 0,0 z m -0.55111,-0.54634 c 0.142,-0.60349 0.0134,0.71215 0,0 z m -10.61868,-7.192114 c -1.92433,-2.655103 5.59247,2.685406 1.23296,0.673191 -0.455,-0.119919 -1.00438,-0.162345 -1.23296,-0.673191 z m 6.11327,3.240411 c -0.18226,-2.235603 0.40608,0.370147 0,0 z m 4.64048,2.977633 c 0.35846,-1.273225 0.0273,0.84246 0,0 z m -10.45763,-7.231079 c 1.14334,-0.245033 4.73832,2.007453 1.4373,0.642887 -0.36669,-0.406079 -1.14984,-0.221655 -1.4373,-0.642887 z m 9.81994,4.894168 c 0.12208,-2.286254 0.68358,-1.364566 0.005,0.328154 z m -8.96925,-5.690309 c 0.46669,-0.683582 -1.23816,-3.089755 0.24503,-0.862811 0.64116,0.509115 1.85507,0.852421 0.78315,1.06715 1.6858,1.486649 -0.41084,0.402616 -1.02818,-0.204339 z m 8.48394,4.976856 c 0.32166,-2.604451 0.28443,1.52518 0,0 z m -9.45801,-7.38173 c 0.35672,-0.152388 0.18918,0.474914 0,0 z m 2.21352,1.317378 c 0.56972,-1.195727 1.05027,1.332529 0,0 z m 6.24185,3.47159 c -0.005,-0.45803 0.11819,0.667997 0,0 z m -0.36192,-0.799604 c -0.86584,-2.137762 0.80653,1.131221 0,0 z m -0.5312,-1.40223 c -0.14502,-0.882725 0.49397,1.109575 0,0 z m 0.86585,-1.406992 c -0.59527,-1.046802 0.75111,-4.616666 0.90177,-2.40271 -0.62774,1.724756 -0.18096,2.68887 0.25499,0.375342 0.8087,-1.819565 -0.17403,3.593675 -1.15676,2.027368 z m 0.88965,-5.308041 c 0.25888,-0.318196 0.0576,0.383568 0,0 z m -1.48622,29.277993 c -0.35196,-0.30781 0.0455,0.19438 0,0 z m 3.06075,1.54726 c 1.70268,0.43811 1.69445,-0.26408 0.15542,-0.47362 -0.82688,-0.7693 -3.43956,-1.58622 -1.10092,-0.0948 0.15412,0.39266 0.64289,0.38227 0.9455,0.56843 z m -6.04401,-4.01491 c 0.93685,0.70047 3.53264,1.98191 1.336,0.26755 0.74073,-0.86108 -1.41738,-1.31911 -0.70177,-1.89576 -1.82129,-1.11477 -1.43773,-1.01477 -0.16061,-0.97927 -2.18841,-0.97927 0.31603,-0.9048 0.19784,-1.40699 -0.84376,-0.16581 -4.1924,-1.48838 -2.22218,0.10823 -2.00226,-1.01996 -0.47707,0.38053 -1.0823,0.23334 -2.04815,-0.55803 1.82303,1.55938 -0.32469,1.03338 1.17365,0.92992 3.16076,2.38453 0.49526,0.98403 -0.3498,0.50565 1.90788,1.27192 2.46245,1.65549 z m 3.20102,1.83991 c 3.89152,1.25331 -1.90918,-1.53383 0,0 z m 16.38691,9.92687 c 0.0506,-0.77276 -0.53119,0.65934 0,0 z m 1.6845,0.7087 c 0.89787,-0.86931 0.0372,1.38664 1.48795,-0.213 0.0152,-1.14508 -0.0437,-1.8213 -1.66718,-0.42989 -0.44851,0.24893 -0.64765,1.30222 0.17923,0.64289 z m -26.73632,-16.79083 c -0.27577,-1.08404 -1.93299,-1.07927 0,0 z m 1.79749,1.17841 c -0.668,-1.10741 -2.38279,-1.00265 0,0 z m 10.23295,6.17085 c 0.99961,0.88792 4.58809,0.65111 1.21261,0.10996 -0.49916,-0.73899 -3.17245,-0.5615 -1.21261,-0.10996 z m 14.06472,8.68742 c 1.5373,-1.29054 -1.48968,0.57492 0,0 z m 3.19799,2.19664 c 0.01,-0.41431 -0.66281,0.18096 0,0 z m 0.005,-0.58012 c 1.70267,-1.80268 -1.649,0.1065 0,0 z m -33.72236,-21.35684 c -1.45072,-2.06979 -0.90134,-3.00014 -2.30141,-4.69113 -0.26581,-1.293564 -2.40141,-4.226168 -1.10438,-1.11953 1.18707,1.81783 1.53903,4.63182 3.40579,5.81066 z m 33.18769,20.78366 c 3.13392,-2.02434 -1.2849,-0.881 0,0 z m 2.39146,0.93684 c 1.56934,-1.34639 -0.99269,-0.28097 0,0 z m -31.68806,-20.30528 c 0.4485,-0.668 -1.1598,-0.0862 0,0 z m 31.1889,19.66585 c 1.51869,-0.97883 -0.3498,-0.82861 -0.27534,0.0896 z m -20.61092,-12.99108 c -0.0524,-0.6628 -0.80307,0.0559 0,0 z m 1.27322,0.7325 c -0.40564,-0.81865 -0.62211,0.12858 0,0 z m 21.77461,12.92009 c 1.94641,-1.40397 -1.17841,-0.26928 -0.40738,0.26711 z m -0.74549,-0.36019 c 1.58622,-1.32777 -1.6728,0.58833 0,0 z m 3.80797,2.53475 c 1.06412,-0.71216 -1.29357,-0.22989 0,0 z m -35.71249,-22.98376 c 1.42561,0.31949 5.7007,3.51228 3.17937,0.22165 -1.29183,-0.38227 -0.51734,-3.53956 -1.83472,-2.98152 0.88446,1.47799 0.72688,2.10529 -1.12992,1.17538 -2.33171,-1.13988 -1.31045,0.56323 -0.85372,1.03338 -0.62254,0.142 0.82168,0.53942 0.63899,0.55111 z m -6.49857,-5.13228 c 0.25499,-1.05719 -2.35249,-5.810657 -1.23123,-2.382791 0.40392,0.718648 0.36192,2.079751 1.23123,2.382791 z m 11.92869,7.35446 c -0.73553,-0.61388 -0.0355,-0.0879 0,0 z m 1.80788,0.42123 c 0,-1.11953 -1.99879,-0.455 0,0 z m 15.67649,9.88098 c -0.29915,-0.76454 -1.18187,-0.0169 0,0 z m 0.75242,0.54938 c -0.1117,-0.42773 -0.43465,0.0831 0,0 z m 6.21327,3.9149 c 0.597,-0.44114 -0.74592,-0.0571 0,0 z m -33.13358,-21.29234 c 1.70961,-0.6615 -1.83168,-0.47188 0,0 z m 24.78774,15.61545 c -0.0199,-1.10611 -1.09053,0.27577 0,0 z m -25.46266,-17.18998 c 1.09745,-0.370146 -1.0165,-0.2433 0,0 z m 3.18586,1.5438 c -0.0186,-0.36322 -0.33638,0.13896 0,0 z m 38.87022,23.83618 c 1.41175,-0.28573 4.63008,0.71864 5.14915,-0.37362 -1.71479,-0.0424 -5.93058,-1.21087 -6.13015,0.27707 l 0.37534,0.0593 z m -37.85718,-23.58076 c 0.0255,-1.12126 -0.87407,-0.042 0,0 z m -8.37745,-5.81196 c -0.38054,-2.13603 -1.44769,-0.323392 0,0 z m 1.99706,0.502188 c 0.0255,-0.686612 -1.82822,-0.617345 0,0 z m 1.14161,0.561498 c -0.32988,-0.267545 -0.25715,0.33638 0,0 z m 7.18519,4.608004 c 0.33854,-0.31127 -0.80134,-0.22988 0,0 z m -7.94453,-5.872998 c -0.19438,-1.613495 -2.31526,-0.242003 0,0 z m -4.09759,-2.658566 c -0.0576,-0.74419 -0.39916,0.280533 0,0 z m 0.61042,-0.459761 c -0.0996,-0.883159 -0.52427,0.11126 0,0 z m 3.36552,2.008751 c 1.42388,-0.558034 -2.59276,-1.156764 -0.29092,-0.104766 z m 45.05752,27.832034 c 0.91129,-0.8351 -1.15677,-0.25845 0,0 z m 5.44354,2.82091 c 0.36539,-1.07883 -0.91996,0.142 0,0 z M 190.42027,93.258208 c 0.15065,-1.045071 -1.12949,0.207802 0,0 z m -4.7907,-3.209674 c -0.25716,-1.474528 -0.22166,-4.063826 2.23906,-3.189327 -3.28414,0.652845 2.27457,4.083741 1.5728,1.374524 1.38145,0.06797 2.70229,-0.816489 1.97672,0.524266 2.72263,-0.299148 4.60844,-2.659864 7.238,-2.328247 2.04771,-0.272307 4.28678,-0.477078 6.49381,-1.302225 1.81437,-0.130309 3.5612,-2.083647 2.56722,-3.242143 -2.47414,-0.209534 -5.06517,0.100005 -7.7995,0.644619 -3.03045,0.629034 -5.78339,1.826059 -8.84111,2.340369 -2.98152,0.400885 0.59873,1.102649 -0.25542,1.259799 -1.55419,0.539419 1.85506,0.903073 -0.20131,1.472796 -1.26975,-0.24157 -2.59233,-0.677954 -2.04944,-2.01741 -2.85468,0.372312 -5.36432,1.555917 -3.10837,4.461247 l 0.16754,0.0017 z m 6.88127,-3.50406 c 0.668,-2.465483 3.58501,2.029532 1.09572,0.328154 -0.29612,-0.223387 -0.78662,-0.404348 -1.09572,-0.328154 z m 0.12988,-1.195727 c 0.96584,-0.718648 0.51257,0.404348 0,0 z m 1.22603,0.02035 c 0.0883,-1.134685 2.80922,0.600461 0.4485,0.407811 z m 1.67756,-0.674491 c 0.61389,-0.717349 0.17793,0.635528 0,0 z m 0.42989,-0.287459 c 1.02126,-1.226031 5.7782,-0.783154 2.29622,-0.120352 -0.93338,-0.703496 -1.64857,0.414305 -2.29622,0.120352 z m 6.20938,-0.957188 c -0.15368,-3.350373 3.0863,1.1888 0,0 z m 1.76243,-0.01039 c 0.64418,-1.687525 2.50098,-0.677954 0.29914,-0.339843 0.0472,0.180961 -0.0658,0.872769 -0.29914,0.339843 z m -14.22058,8.952797 c 1.92433,-1.178843 -2.04295,-1.022991 0,0 z m 1.42387,0.393958 c 0.67493,-0.716916 -1.46803,-0.290923 0,0 z m -4.1937,-2.974598 c 1.09919,-0.845494 -1.30222,-0.321227 0,0 z m 56.83426,35.555344 c 0.032,-0.981 -0.84073,0.44114 0,0 z m -5.77516,-3.94218 c 0.16407,-1.12776 -0.74246,0.0983 0,0 z m 7.36311,4.32271 c 1.5373,0.005 4.65866,-0.47881 1.31392,-0.47707 -0.526,0.0814 -3.05902,0.0645 -1.31392,0.47707 z M 192.40088,92.094517 c 1.24464,-0.08442 1.94641,-1.371493 -0.24201,-1.298762 -3.39063,-0.3498 2.99149,1.161959 -0.43465,0.729038 -0.45976,0.304344 0.64938,0.654576 0.67666,0.569724 z m 1.09572,0.555004 c -0.13031,-0.798305 -0.38573,0.424263 0,0 z m 1.30049,-3.466828 c 0.53942,-0.669729 -0.74765,-0.17923 0,0 z m -4.14002,-6.918505 c 2.22218,-0.754148 5.25956,-1.603106 6.30809,0.372311 -1.06715,-1.283609 -0.43119,-2.548603 0.57665,-0.669728 1.42561,1.899223 2.13906,-0.86411 1.21218,-1.501802 1.05719,1.312183 2.25768,1.932991 0.70696,0.08312 1.68622,-2.0278 -3.37375,0.26538 -4.52359,0.24157 -0.55284,0.248496 -5.71239,1.315646 -4.28029,1.474528 z m 1.30223,-2.492325 c 1.26672,-0.955456 4.38159,0.569724 2.38279,-0.950693 -0.19611,-0.172303 -4.37639,1.1533 -2.38279,0.950693 z m 4.6184,0.190918 c 1.48145,0.03723 -0.639,-1.9923 1.12646,-1.072344 -0.2892,-0.946797 -2.05638,-1.124295 -2.92049,-1.503101 -0.48877,0.865842 0.99399,2.587134 1.79403,2.575445 z m -3.80841,-4.192403 c 0.51258,-0.694838 -0.89961,0.353696 0,0 z m 1.88754,0.451536 c 2.38929,-0.316032 -0.60912,-1.028187 -0.48228,-0.02511 z m -3.52441,-2.756406 c -1.68276,-2.196639 3.16422,0.368849 1.45418,-1.931259 -1.43903,-1.144642 -2.82048,1.290537 -1.45418,1.931259 z m 21.58672,11.626517 c 0.77147,-1.36673 -3.18413,-1.843376 -0.51907,-0.484005 0.24503,0.08139 0.18962,0.578382 0.51907,0.484005 z"
     id="path8172"
     style="stroke-width:0.258615" />
  <path
     d="m 156.00102,98.188041 c -1.07415,-0.845083 -2.22042,-1.654937 -3.00353,-2.796044 -1.6483,-2.012189 -2.91703,-4.341424 -3.78443,-6.789621 -0.52454,-1.592047 -0.70399,-3.298815 -1.3805,-4.829077 -0.70676,-1.111777 0.12173,-2.326285 1.33937,-2.679479 0.54169,-0.104391 1.49485,-0.61583 0.34434,-0.24991 -1.03173,0.756554 -1.13114,-0.687392 -0.0734,-0.778871 0.72188,-0.09572 0.98766,-0.686469 0.74051,-1.218197 -0.77518,-0.505722 1.87903,-1.060504 0.54335,-1.814845 -1.39046,-1.500752 1.94579,-1.789578 1.12248,-0.08503 -0.1968,1.310598 2.33199,-0.240689 1.74476,1.272974 0.59664,0.727045 2.23351,0.165807 2.19238,1.185183 0.86887,0.05976 1.16711,0.790306 1.98194,0.846559 0.84582,0.381781 2.37756,0.682226 2.66491,1.634651 -0.83844,0.6636 -2.77944,-1.370909 -2.87313,0.466254 0.2536,2.714521 0.18886,5.510747 1.18167,8.095614 0.46958,1.564934 1.60865,2.79678 2.6367,4.015897 0.98414,1.193665 2.31706,2.034509 3.6758,2.742002 1.19163,0.561975 2.47623,0.934352 3.77521,1.168586 0.52656,-0.402808 1.45667,-1.90061 2.27796,-1.269473 0.0397,0.71045 -1.63023,1.484156 -0.0784,1.405584 0.91204,-0.275175 1.54391,0.704545 2.29457,-0.179455 0.69163,0.819261 2.87461,-0.523058 2.38254,1.151429 -0.66563,0.42937 -1.63613,0.169865 -2.3025,0.760798 -1.09868,-0.549063 -1.97346,0.4906 -3.19018,0.35947 -1.35081,0.24198 -2.72559,0.33936 -4.09502,0.34139 -2.24717,-0.17724 -4.54173,-0.25212 -6.67933,-1.034503 -1.20455,-0.350057 -2.37959,-1.035976 -3.43807,-1.721891 z m 1.89766,0.822767 c 1.17577,0.507934 2.32573,1.043902 3.61457,1.206022 2.04465,0.28385 4.15625,0.72188 6.2081,0.32276 -0.92864,-0.41922 -1.88899,0.16286 -2.81412,-0.2997 -1.10938,0.23847 -2.30028,-0.0612 -3.42866,-0.20897 -1.28238,-0.571195 -2.66694,-0.963859 -3.86798,-1.706027 -1.50149,-0.548142 0.77592,0.703254 1.18149,0.804874 0.93805,0.532282 -1.03173,-0.273146 -1.30986,-0.494284 -0.78588,-0.440988 -0.88602,-0.34877 -0.0776,0.09867 0.16267,0.09517 0.3235,0.195316 0.4941,0.276653 z m -2.23776,-1.581349 c 1.13982,0.422175 -0.005,-0.801189 -0.52656,-0.73055 -0.23128,-0.401329 -0.884,-0.65493 -0.42365,-0.87035 -0.82775,0.287534 -0.8674,-1.092966 -1.25637,-0.895435 -0.87607,-0.276652 -0.34084,-1.256559 -1.38474,-1.858743 -0.0952,-0.634089 -1.03672,-1.183705 -1.33643,-2.139819 -0.13261,-0.489862 -1.06419,-1.895445 -0.49207,-0.587243 0.48691,1.259325 1.34361,2.338641 2.05682,3.415746 0.55331,1.025828 1.2075,2.09869 2.21545,2.7385 0.34009,0.326264 0.66784,0.825532 1.14755,0.927894 z m -3.28221,-3.604424 c 0.0394,-0.172264 0.20823,0.372376 0,0 z m 4.64759,4.110147 c 0.25212,-0.113059 -0.36315,-0.14257 0,0 z m 0.61804,0.225563 c -0.064,-0.311327 -0.28237,0.174292 0,0 z m 0.77463,0.322762 c 0.36813,-0.350982 -0.56843,-0.22132 0,0 z m 1.32702,0.739773 c 0.22409,-0.330694 -0.71691,-0.124497 0,0 z m -2.54816,-1.776486 c 0.57193,-0.370345 -0.73996,-0.0052 0,0 z m 0.5806,0.289565 c -0.0166,-0.195315 -0.20675,0.08779 0,0 z m 2.90264,1.811894 c 0.46681,0.294729 2.72559,0.645527 1.31134,0.120991 -0.23719,0.0498 -2.62249,-0.675034 -1.31134,-0.120991 z m -4.60793,-3.5893 c -0.0454,-0.19587 -0.72483,-0.216894 0,0 z m 1.3508,0.78828 c 0.35227,-0.245668 -0.72981,-0.189603 0,0 z m 1.13686,0.696613 c 0.50499,-0.190153 -0.81834,-0.19089 0,0 z m -3.0382,-2.083571 c 0.54759,0.41996 2.20898,0.05404 0.83863,-0.250648 -0.62321,-0.332168 -2.02806,-0.55976 -1.07047,0.200301 z m 3.80841,2.324258 c 0.22833,-0.38842 -0.95686,-0.222061 0,0 z m -1.15715,-0.919411 c 1.33863,0.378277 -1.12598,-0.847298 -0.33051,-0.1398 l 0.1765,0.08004 z m 2.32001,1.340845 c 1.268,0.01218 -1.14553,-0.175029 0,0 z m -5.45892,-3.479189 c -0.0498,-0.236262 -0.31262,0.01955 0,0 z m 7.60372,4.682261 c 0.0337,-0.426414 -0.41369,0.317786 0,0 z m -5.43955,-3.357278 c -0.0771,-0.224826 -0.39617,-0.0094 0,0 z m -2.04392,-1.47327 c 0.72778,-0.0439 -0.99706,-0.320551 0,0 z m -2.42145,-1.564935 c -0.0907,-0.34932 -0.79178,-0.627451 0,0 z m 6.35657,4.033973 c -0.13316,-0.152159 -0.0627,0.03302 0,0 z m 3.95596,2.427911 c -0.0122,-0.23276 -0.21543,0.08779 0,0 z m -4.30602,-2.78959 c 0.0714,-0.299705 -0.62099,-0.09093 0,0 z m -2.94746,-1.868146 c 0.54187,-0.05773 -0.86814,-0.366105 0,0 z m 4.98566,3.097965 c 0.84434,-0.334384 -0.82277,-0.162858 0,0 z m -2.59298,-1.760072 c 0.97253,0.125234 -1.15771,-0.662121 -0.21395,-0.07064 z m 3.38033,2.078407 c 0.90853,-0.542425 0.60882,1.271679 1.54114,0.15345 0.91923,-0.671345 -0.79399,0.829959 0.33863,0.119696 0.81982,-0.548325 2.03008,0.260055 2.79457,0.523063 0.54961,-0.02675 1.08429,0.47547 1.6483,0.16986 1.08503,-0.292513 -2.1223,-0.433605 -1.28165,-0.951687 -0.99281,0.289012 -1.72613,-0.344339 -2.2147,-0.980456 -1.11381,-0.25729 -2.40116,-0.826457 -2.95742,-1.812635 -0.22686,-0.369607 0.32719,0.05257 -0.19587,-0.552569 -0.6708,-0.596645 -1.00573,-1.274632 -1.45612,-2.000018 -0.53818,-0.286796 -0.60163,-1.131879 -0.65567,-0.02803 0.004,-0.696796 -0.64976,-1.165817 -0.80967,-0.971238 -0.003,-0.670791 0.7003,-0.334379 0.20823,-0.830695 -0.10587,-0.695322 -0.45464,-1.419971 -0.55921,-2.205295 -0.16267,-0.378277 -0.0231,-1.18869 -0.55608,-0.332172 -0.19384,0.905582 -0.0642,-1.112329 0.23774,-0.447439 0.39617,-0.67854 -0.14275,-0.598677 -0.16433,-0.504986 0.25803,-0.572672 0.16359,-1.385478 -0.0677,-1.075626 0.13759,-0.607346 0.21764,-2.234805 -0.20528,-1.945979 0.25637,-0.635381 0.48636,-2.906335 -0.62763,-2.040226 -0.45094,0.0065 -1.23258,0.163594 -1.60145,0.347292 1.1577,0.638331 -0.11675,0.230544 -0.58872,0.12892 -0.0612,0.590747 -0.52804,0.335673 -1.11159,0.341391 0.93232,0.115272 -0.4539,0.953162 -0.98766,0.627634 -0.69458,0.33143 0.59868,1.159915 0.0136,1.41628 0.0721,0.38547 -1.06345,-0.139618 -0.97473,0.752313 -0.67375,-0.284031 -0.0922,1.057553 0.24493,0.603656 1.14626,0.31059 0.8069,1.017346 0.83567,1.689432 -0.18665,0.391186 -0.92217,-0.919965 -0.16359,-0.859469 -0.59868,-0.971979 -0.66194,-0.351536 -1.15918,0.100146 -0.11527,0.03246 1.26799,0.642575 0.39986,0.943759 0.76374,0.118222 0.78606,0.786797 0.94173,1.209709 0.45887,0.478244 0.36444,-0.528221 0.91424,0.04685 -0.34803,-0.51236 -1.84159,-1.443206 -0.63907,-1.144788 -0.006,-0.515129 -0.21763,-0.930845 0.15124,-0.920889 0.36537,-0.660647 -0.38252,1.629673 0.44025,0.789754 0.22759,-0.09941 0.28458,-0.661384 0.69384,0.0533 0.59425,0.585032 0.21469,1.008494 -0.62394,0.472527 0.14976,0.509408 1.12173,0.690896 0.93878,1.4871 0.19365,0.700302 0.46459,0.442279 0.70085,0.401888 0.18517,0.680197 0.29048,0.180192 0.29915,-0.144044 0.84786,0.18167 0.64903,0.682962 0.91481,1.033207 0.58429,0.263557 -0.83642,-1.78755 0.16654,-0.616754 1.05534,0.953166 0.39617,1.350806 -0.55109,1.198097 0.59941,-0.04833 0.79233,0.810591 1.54243,0.780343 0.6837,0.325531 1.14701,1.574895 -0.0317,1.054602 -0.40852,-0.36887 -1.85597,-0.823504 -0.67356,-0.122465 1.09075,0.505723 1.95816,0.807643 3.01073,1.442473 0.75287,0.537445 1.07839,1.153274 1.36372,1.275186 -0.63317,0.302474 -1.90762,-0.241425 -0.9611,-0.407788 -0.59075,-0.107342 -1.2549,-0.40631 -0.68942,0.32922 0.48119,0.402067 1.70382,0.359464 1.92366,0.404836 -0.18591,0.409262 -0.50498,0.441721 0.007,0.473443 -0.57138,0.304689 0.1837,0.352272 0.23627,0.525827 z m -1.16858,-3.300293 c -0.34803,-0.36389 -0.43804,-1.044641 -0.062,-0.452601 0.1931,0.07783 0.61749,1.113253 0.062,0.452601 z m 3.80619,2.417767 c 0.2169,-0.0144 0.006,0.164885 0,0 z m -4.35507,-3.309695 c -0.0139,-0.549804 0.12523,0.424203 0,0 z m -0.37828,-0.508675 c -0.43803,-0.845083 0.55109,0.239213 0,0 z M 154.885,90.268935 c 0.25729,-0.06861 0.12689,0.439326 0,0 z m 3.64924,1.977515 c 0.1577,-0.59296 0.18518,0.497241 0,0 z m -2.57785,-1.792526 c -0.18149,-0.327005 0.37975,0.307084 0,0 z m 2.21175,0.708971 c -0.41424,-0.927898 0.29399,-0.507201 0.0922,0.151972 z m -3.81468,-2.543921 c -0.18517,-0.304686 -0.49134,-1.198092 -0.39267,-1.471056 0.0885,0.444486 0.9445,1.91204 0.41923,0.60808 -0.57987,-1.092961 0.69384,0.354305 0.82498,0.627451 0.0612,0.270936 -0.35817,-0.07414 -0.0743,0.561976 -0.51789,-0.724096 -0.30543,0.399855 -0.77721,-0.326451 z m -1.17873,-0.812624 c 0.0483,-0.70823 0.26946,0.485619 0,0 z m 0.53025,0.182961 c 0.25287,-0.534492 0.42863,0.744937 0,0 z m -1.27592,-0.986915 c -0.43877,-0.436745 -0.75655,-0.838628 0.0208,-0.270935 0.29897,0.01142 -0.66562,-0.914247 0.0721,-0.293992 0.77518,0.141278 0.38252,1.271683 -0.093,0.564927 z m 0.67005,-0.01734 c 0.25508,-0.252864 0.13538,0.248616 0,0 z m 0.41277,0.131868 c -0.38694,-0.724091 0.46902,0.303952 0,0 z m -0.81982,-0.783113 c -1.27592,-1.136306 1.60293,0.593514 0.20823,0.210257 z m 3.65625,2.123775 c -0.55257,-0.33069 -0.14699,-2.330525 0.0419,-0.963122 0.53671,-0.173738 -0.0297,0.70676 0.37017,0.698091 -0.0625,0.555333 -0.24199,0.75508 -0.41203,0.265031 z m 1.35229,0.799715 c 0.054,-0.602921 0.11379,0.412214 0,0 z m -0.23479,-0.23276 c 0.0605,-0.257102 0.006,0.303399 0,0 z m -4.52384,-3.064022 c -0.81981,-1.131143 2.38254,1.144054 0.52528,0.286796 -0.19384,-0.05109 -0.42789,-0.06916 -0.52528,-0.286796 z m 2.60442,1.380499 c -0.0777,-0.952424 0.173,0.157693 0,0 z m 1.97696,1.268548 c 0.15272,-0.542425 0.0116,0.35891 0,0 z m -4.45522,-3.080626 c 0.48709,-0.104391 2.01865,0.855227 0.61233,0.273887 -0.15622,-0.173001 -0.48987,-0.09443 -0.61233,-0.273887 z m 4.18355,2.085046 c 0.052,-0.974007 0.29122,-0.581343 0.002,0.1398 z m -3.82113,-2.424223 c 0.19882,-0.291224 -0.52749,-1.316316 0.10438,-0.36758 0.27316,0.216896 0.79031,0.363154 0.33365,0.454634 0.71819,0.633351 -0.17503,0.171525 -0.43803,-0.08705 z m 3.61438,2.12027 c 0.13703,-1.109564 0.12117,0.649767 0,0 z m -4.02936,-3.144809 c 0.15197,-0.06492 0.0806,0.202326 0,0 z m 0.94301,0.561237 c 0.24272,-0.509411 0.44745,0.567692 0,0 z m 2.65919,1.478988 c -0.002,-0.195132 0.0504,0.284586 0,0 z m -0.15418,-0.340652 c -0.36887,-0.910742 0.3436,0.481931 0,0 z m -0.22631,-0.597386 c -0.0618,-0.376064 0.21045,0.472708 0,0 z m 0.36888,-0.599416 c -0.2536,-0.445965 0.31999,-1.96682 0.38417,-1.023617 -0.26743,0.734791 -0.0771,1.145529 0.10864,0.159905 0.34452,-0.775182 -0.0741,1.531 -0.49281,0.863712 z m 0.37901,-2.261364 c 0.11029,-0.13556 0.0245,0.16341 0,0 z M 156.352,94.879824 c -0.14994,-0.131135 0.0194,0.08281 0,0 z m 1.30396,0.659169 c 0.72539,0.186651 0.72188,-0.112505 0.0662,-0.20177 -0.35228,-0.327742 -1.46535,-0.675771 -0.46903,-0.04039 0.0657,0.167283 0.27389,0.162857 0.40281,0.242162 z m -2.5749,-1.710452 c 0.39912,0.298414 1.50499,0.844345 0.56917,0.113979 0.31557,-0.366843 -0.60384,-0.561975 -0.29898,-0.807643 -0.77591,-0.474922 -0.6125,-0.432315 -0.0684,-0.417191 -0.93232,-0.417194 0.13464,-0.385473 0.0843,-0.599419 -0.35947,-0.07064 -1.78608,-0.634088 -0.94671,0.04611 -0.85302,-0.434529 -0.20325,0.16212 -0.46109,0.09941 -0.87257,-0.237739 0.77666,0.664337 -0.13833,0.440247 0.50001,0.396166 1.34657,1.015872 0.211,0.419223 -0.14903,0.21542 0.8128,0.541871 1.04907,0.705282 z m 1.36371,0.78385 c 1.65789,0.533942 -0.81336,-0.653456 0,0 z m 6.98126,4.229106 c 0.0216,-0.329216 -0.2263,0.280896 0,0 z m 0.71764,0.30192 c 0.38251,-0.370344 0.0159,0.59075 0.6339,-0.09074 0.006,-0.48783 -0.0186,-0.775917 -0.71026,-0.183145 -0.19108,0.106051 -0.27592,0.554784 0.0764,0.273888 z M 152.7533,91.990085 c -0.11749,-0.461825 -0.82351,-0.459798 0,0 z m 0.76577,0.502033 c -0.28458,-0.471786 -1.01513,-0.427151 0,0 z m 4.35951,2.628948 c 0.42586,0.378277 1.95464,0.27739 0.5166,0.04685 -0.21265,-0.314834 -1.35155,-0.239214 -0.5166,-0.04685 z m 5.99194,3.701064 c 0.65493,-0.5498 -0.63465,0.244931 0,0 z m 1.36242,0.935826 c 0.004,-0.176503 -0.28237,0.07709 0,0 z m 0.002,-0.247142 c 0.72539,-0.767989 -0.70251,0.04537 0,0 z m -14.3666,-9.098573 c -0.61805,-0.881789 -0.384,-1.278138 -0.98046,-1.998544 -0.11325,-0.551094 -1.02307,-1.800459 -0.4705,-0.476949 0.50572,0.774443 0.65567,1.973277 1.45096,2.475493 z m 14.13882,8.854379 c 1.33513,-0.862422 -0.5474,-0.375325 0,0 z m 1.01882,0.399118 c 0.66858,-0.573593 -0.42291,-0.119696 0,0 z m -13.49985,-8.65058 c 0.19107,-0.284581 -0.49411,-0.03668 0,0 z m 13.28728,8.378171 c 0.64701,-0.417008 -0.14902,-0.35301 -0.1173,0.03817 z m -8.78079,-5.53454 c -0.0223,-0.282375 -0.34212,0.02377 0,0 z m 0.54243,0.312064 c -0.17281,-0.348766 -0.26504,0.05478 0,0 z m 9.27655,5.504292 c 0.82922,-0.598124 -0.50203,-0.114716 -0.17355,0.113796 z m -0.3176,-0.153451 c 0.67578,-0.565664 -0.71265,0.250649 0,0 z m 1.6223,1.079866 c 0.45334,-0.30339 -0.5511,-0.0979 0,0 z m -15.21446,-9.791674 c 0.60735,0.136111 2.42865,1.496323 1.3545,0.09443 -0.55035,-0.162857 -0.2204,-1.507945 -0.78164,-1.270205 0.3768,0.629662 0.30967,0.896908 -0.48138,0.500743 -0.99336,-0.485623 -0.55828,0.23995 -0.3637,0.440246 -0.26522,0.06049 0.35005,0.229807 0.27222,0.234788 z M 150.17341,88.6234 c 0.10864,-0.45039 -1.00222,-2.475493 -0.52453,-1.015131 0.17208,0.30616 0.15418,0.886028 0.52453,1.015131 z m 5.08194,3.133192 c -0.31336,-0.261528 -0.0151,-0.03745 0,0 z m 0.7702,0.179455 c 0,-0.476949 -0.85154,-0.193841 0,0 z m 6.6786,4.209556 c -0.12745,-0.325714 -0.50351,-0.0072 0,0 z m 0.32055,0.234051 c -0.0476,-0.182225 -0.18518,0.0354 0,0 z m 2.64701,1.667849 c 0.25434,-0.187941 -0.31778,-0.02433 0,0 z M 151.55594,88.97641 c 0.72834,-0.281817 -0.78034,-0.201034 0,0 z m 10.56023,6.65259 c -0.008,-0.471232 -0.4646,0.117485 0,0 z m -10.84776,-7.323381 c 0.46754,-0.157694 -0.43306,-0.103652 0,0 z m 1.35726,0.657695 c -0.008,-0.154742 -0.14331,0.05921 0,0 z M 169.1854,99.11815 c 0.60144,-0.121729 1.97253,0.306163 2.19367,-0.159168 -0.73055,-0.01806 -2.52658,-0.515866 -2.6116,0.118039 l 0.1599,0.02526 z M 153.05725,89.072134 c 0.0109,-0.477691 -0.37238,-0.01789 0,0 z m -3.56901,-2.476047 c -0.16212,-0.910007 -0.61676,-0.137777 0,0 z m 0.8508,0.213941 c 0.0109,-0.292513 -0.77887,-0.263003 0,0 z m 0.48635,0.239214 c -0.14054,-0.113979 -0.10955,0.143307 0,0 z m 3.06108,1.963133 c 0.14423,-0.132609 -0.34139,-0.09794 0,0 z m -3.38458,-2.502052 c -0.0828,-0.687392 -0.98636,-0.103098 0,0 z m -1.74568,-1.132619 c -0.0245,-0.317045 -0.17005,0.119514 0,0 z m 0.26006,-0.19587 c -0.0424,-0.376249 -0.22336,0.0474 0,0 z m 1.4338,0.85578 c 0.60661,-0.237737 -1.10459,-0.492812 -0.12394,-0.04463 z m 19.19568,11.857176 c 0.38823,-0.355774 -0.49282,-0.110106 0,0 z m 2.31909,1.201782 c 0.15566,-0.459615 -0.39192,0.0605 0,0 z M 150.59688,85.286224 c 0.0642,-0.445228 -0.48119,0.08853 0,0 z m -2.04096,-1.367405 c -0.10956,-0.628188 -0.0944,-1.731296 0.95389,-1.358737 -1.39913,0.278129 0.96903,1.739781 0.67006,0.585583 0.58853,0.02896 1.15124,-0.347845 0.84213,0.223351 1.15991,-0.127444 1.96332,-1.133171 3.08358,-0.991894 0.87238,-0.11601 1.82628,-0.203247 2.76653,-0.554782 0.77297,-0.05551 1.51717,-0.887688 1.09371,-1.381237 -1.05405,-0.08927 -2.1579,0.0426 -3.3228,0.274624 -1.29105,0.267985 -2.46387,0.777949 -3.76654,0.997059 -1.27021,0.170787 0.25507,0.469757 -0.10882,0.536707 -0.66212,0.229807 0.79031,0.384733 -0.0858,0.62745 -0.54095,-0.102916 -1.1044,-0.288827 -0.87311,-0.85947 -1.21617,0.158615 -2.28534,0.662861 -1.32425,1.900608 l 0.0714,7.24e-4 z m 2.9316,-1.492821 c 0.28458,-1.050361 1.5273,0.864633 0.4668,0.139802 -0.12615,-0.09517 -0.33512,-0.172263 -0.4668,-0.139802 z m 0.0553,-0.509411 c 0.41147,-0.306163 0.21837,0.172263 0,0 z m 0.52232,0.0087 c 0.0376,-0.483405 1.1968,0.255812 0.19107,0.173739 z m 0.71468,-0.28735 c 0.26154,-0.30561 0.0758,0.270751 0,0 z m 0.18315,-0.122465 c 0.43508,-0.522322 2.46166,-0.333645 0.97825,-0.05127 -0.39765,-0.299707 -0.70234,0.176505 -0.97825,0.05127 z m 2.64536,-0.407788 c -0.0655,-1.427346 1.31484,0.50646 0,0 z m 0.75083,-0.0044 c 0.27445,-0.71893 1.06549,-0.288826 0.12745,-0.144782 0.0201,0.07709 -0.028,0.371822 -0.12745,0.144782 z m -6.05833,3.814126 c 0.81981,-0.502218 -0.87035,-0.435821 0,0 z m 0.6066,0.167836 c 0.28754,-0.305425 -0.62541,-0.123941 0,0 z m -1.78662,-1.267256 c 0.46828,-0.360203 -0.55478,-0.136852 0,0 z m 24.21288,15.147503 c 0.0136,-0.417927 -0.35817,0.187942 0,0 z m -2.46037,-1.679467 c 0.0699,-0.480455 -0.31631,0.04188 0,0 z m 3.13688,1.841587 c 0.65493,0.0021 1.98471,-0.203985 0.55976,-0.203248 -0.22409,0.03468 -1.30322,0.02748 -0.55976,0.203248 z M 151.44067,84.790461 c 0.53025,-0.03596 0.82922,-0.584292 -0.1031,-0.553306 -1.4445,-0.149024 1.27445,0.495025 -0.18517,0.310589 -0.19587,0.129658 0.27665,0.278866 0.28827,0.242717 z m 0.46681,0.236446 c -0.0555,-0.340098 -0.16433,0.180748 0,0 z m 0.55404,-1.476959 c 0.22981,-0.285322 -0.31852,-0.07636 0,0 z m -1.76376,-2.947464 c 0.94671,-0.321287 2.24071,-0.682965 2.68741,0.158614 -0.45463,-0.546851 -0.18369,-1.085771 0.24567,-0.285321 0.60735,0.809118 0.9113,-0.368134 0.51642,-0.639807 0.45039,0.559024 0.96183,0.823504 0.30119,0.03541 0.71837,-0.863896 -1.43731,0.113059 -1.92717,0.102915 -0.23553,0.105866 -2.43363,0.5605 -1.82352,0.628188 z m 0.55479,-1.061796 c 0.53965,-0.407048 1.86667,0.242718 1.01513,-0.40502 -0.0836,-0.0734 -1.86446,0.491336 -1.01513,0.40502 z m 1.96756,0.08134 c 0.63113,0.01586 -0.27224,-0.848772 0.4799,-0.456846 -0.12321,-0.40336 -0.87607,-0.478979 -1.24421,-0.640361 -0.20823,0.368872 0.42347,1.102187 0.76431,1.097207 z m -1.62249,-1.786073 c 0.21838,-0.296019 -0.38325,0.150684 0,0 z m 0.80414,0.192366 c 1.0179,-0.134638 -0.2595,-0.438034 -0.20546,-0.0107 z m -1.50149,-1.174301 c -0.7169,-0.935826 1.34804,0.157139 0.61952,-0.822767 -0.61306,-0.487647 -1.2016,0.549803 -0.61952,0.822767 z m 9.19651,4.9532 c 0.32867,-0.582262 -1.35652,-0.785326 -0.22114,-0.206198 0.10439,0.03467 0.0808,0.246406 0.22114,0.206198 z"
     id="path8172-3"
     style="stroke-width:0.110177" />
  <g
     fill="#000000"
     id="g8673"
     transform="matrix(0.80890454,0,0,0.80890454,216.19356,-223.71254)">
    <path
       d="m -59.721259,393.87665 c -2.54233,-2.00016 -5.255342,-3.91695 -7.108834,-6.61774 -3.901237,-4.76251 -6.904103,-10.2754 -8.957088,-16.06985 -1.241481,-3.7681 -1.666221,-7.80772 -3.267401,-11.42958 -1.672769,-2.63138 0.288108,-5.50591 3.170056,-6.34185 1.282078,-0.24708 3.538047,-1.45757 0.814995,-0.5915 -2.441929,1.79063 -2.677217,-1.62693 -0.173737,-1.84345 1.708564,-0.22656 2.337599,-1.62475 1.752654,-2.88326 -1.834722,-1.19695 4.447332,-2.51002 1.286007,-4.29542 -3.290974,-3.55201 4.605354,-4.23561 2.6567,-0.20124 -0.465774,3.10196 5.519441,-0.56966 4.129541,3.01291 1.412163,1.72079 5.286336,0.39244 5.188991,2.80512 2.056476,0.14143 2.762339,1.87052 4.690913,2.00366 2.001912,0.90361 5.627263,1.61471 6.307373,3.86893 -1.984449,1.57062 -6.578455,-3.2447 -6.800211,1.10354 0.600224,6.4248 0.447003,13.04298 2.796825,19.1609 1.111397,3.70392 3.807384,6.61948 6.240584,9.50492 2.329306,2.8252 5.484083,4.81533 8.699974,6.48984 2.820398,1.3301 5.860804,2.21145 8.935261,2.76583 1.246282,-0.95337 3.447687,-4.4984 5.391539,-3.00461 0.09385,1.6815 -3.858457,3.51273 -0.185524,3.32677 2.158623,-0.6513 3.654163,1.66753 5.430827,-0.42474 1.636974,1.93905 6.803701,-1.23799 5.639048,2.72524 -1.575425,1.01623 -3.872427,0.40204 -5.449597,1.80067 -2.600389,-1.29954 -4.670832,1.16116 -7.550599,0.85079 -3.197121,0.57272 -6.450988,0.80321 -9.692197,0.80801 -5.318641,-0.4195 -10.749468,-0.59673 -15.80881,-2.44848 -2.850954,-0.82853 -5.632064,-2.45197 -8.13729,-4.07541 z m 4.491422,1.94734 c 2.782857,1.2022 5.504598,2.47074 8.555046,2.85445 4.839334,0.67182 9.837125,1.70857 14.693482,0.76392 -2.19791,-0.99222 -4.470904,0.38546 -6.660521,-0.70935 -2.625708,0.56443 -5.444358,-0.14493 -8.115027,-0.49459 -3.03517,-1.35192 -6.312175,-2.28128 -9.154835,-4.03787 -3.553762,-1.29735 1.836467,1.66448 2.796389,1.905 2.220175,1.25982 -2.441929,-0.64649 -3.100211,-1.16989 -1.86004,-1.04373 -2.097074,-0.82547 -0.183778,0.23355 0.385017,0.22524 0.765668,0.46228 1.169455,0.65478 z m -5.296376,-3.74277 c 2.697734,0.9992 -0.01179,-1.89627 -1.246284,-1.72908 -0.547404,-0.94989 -2.092271,-1.55011 -1.002701,-2.05998 -1.959131,0.68055 -2.052984,-2.58685 -2.973619,-2.11933 -2.073501,-0.65479 -0.806701,-2.97406 -3.277441,-4.39931 -0.225248,-1.50078 -2.453715,-2.80163 -3.163071,-5.06459 -0.313863,-1.15941 -2.518758,-4.48618 -1.164653,-1.3899 1.15243,2.98061 3.180096,5.53516 4.868144,8.08448 1.30958,2.42796 2.857939,4.96723 5.243557,6.48154 0.804954,0.77222 1.580662,1.95389 2.716068,2.19617 z m -7.768426,-8.53104 c 0.09342,-0.40772 0.492838,0.88134 0,0 z m 11.000031,9.72799 c 0.596732,-0.26759 -0.85952,-0.33743 0,0 z m 1.462801,0.53387 c -0.151475,-0.73685 -0.668322,0.41252 0,0 z m 1.833411,0.76393 c 0.871306,-0.83071 -1.345375,-0.52384 0,0 z m 3.140808,1.7509 c 0.530379,-0.78269 -1.696779,-0.29465 0,0 z m -6.03105,-4.20462 c 1.353669,-0.87655 -1.751344,-0.0122 0,0 z m 1.374185,0.68535 c -0.03929,-0.46228 -0.489346,0.20778 0,0 z m 6.870053,4.28843 c 1.104851,0.69757 6.450991,1.52784 3.103706,0.28636 -0.561374,0.11787 -6.20697,-1.59768 -3.103706,-0.28636 z m -10.906177,-8.49524 c -0.107385,-0.46359 -1.715549,-0.51336 0,0 z m 3.19712,1.86571 c 0.833766,-0.58145 -1.727335,-0.44874 0,0 z m 2.69075,1.64877 c 1.19521,-0.45006 -1.936868,-0.45181 0,0 z m -7.190902,-4.93145 c 1.296048,0.99398 5.228279,0.12791 1.984887,-0.59323 -1.475024,-0.78619 -4.800046,-1.32486 -2.5336,0.47406 z m 9.013836,5.50111 c 0.540421,-0.91932 -2.264699,-0.52557 0,0 z m -2.738767,-2.17608 c 3.168309,0.89531 -2.664994,-2.0054 -0.782255,-0.33089 l 0.417756,0.18945 z m 5.491067,3.17354 c 3.001119,0.0288 -2.711266,-0.41426 0,0 z m -12.920312,-8.23463 c -0.117862,-0.55919 -0.739912,0.0463 0,0 z m 17.99668,11.0821 c 0.07988,-1.00925 -0.979129,0.75213 0,0 z m -12.874477,-7.94609 c -0.182469,-0.53213 -0.937659,-0.0223 0,0 z m -4.837587,-3.48698 c 1.722533,-0.10389 -2.359863,-0.75868 0,0 z m -5.731157,-3.70392 c -0.214771,-0.82679 -1.874008,-1.48507 0,0 z m 15.044887,9.5477 c -0.315171,-0.36013 -0.14842,0.0781 0,0 z m 9.363056,5.74644 c -0.02881,-0.5509 -0.509862,0.20778 0,0 z m -10.191583,-6.60247 c 0.168934,-0.70935 -1.469785,-0.2152 0,0 z m -6.976131,-4.42157 c 1.282515,-0.13664 -2.05473,-0.86651 0,0 z m 11.800184,7.33233 c 1.998418,-0.79142 -1.947345,-0.38545 0,0 z m -6.137125,-4.16577 c 2.301805,0.2964 -2.740078,-1.56713 -0.506371,-0.16719 z m 8.000658,4.91922 c 2.15033,-1.28383 1.440972,3.00985 3.647615,0.36319 2.175648,-1.58896 -1.879247,1.96437 0.801462,0.2833 1.940361,-1.29779 4.804847,0.61551 6.61425,1.23799 1.30085,-0.0633 2.56634,1.12537 3.901237,0.40204 2.568088,-0.69233 -5.023109,-1.02627 -3.033423,-2.25247 -2.349821,0.68403 -4.08545,-0.815 -5.24181,-2.32058 -2.636183,-0.60895 -5.683137,-1.95607 -6.999701,-4.29018 -0.536927,-0.8748 0.774396,0.12441 -0.463591,-1.30783 -1.587647,-1.41217 -2.380381,-3.01684 -3.446377,-4.7337 -1.273785,-0.6788 -1.423949,-2.67896 -1.551854,-0.0663 0.01048,-1.64919 -1.537882,-2.75928 -1.91635,-2.29875 -0.007,-1.58764 1.657492,-0.79142 0.492838,-1.96611 -0.250566,-1.64571 -1.076037,-3.36082 -1.323548,-5.21955 -0.385016,-0.89531 -0.05457,-2.81341 -1.316128,-0.78618 -0.458789,2.14334 -0.151911,-2.63269 0.562683,-1.05902 0.937659,-1.60598 -0.337871,-1.41696 -0.388945,-1.19521 0.610701,-1.35541 0.387199,-3.27918 -0.160205,-2.54582 0.325649,-1.43748 0.515101,-5.28939 -0.485854,-4.60579 0.606772,-1.50383 1.15112,-6.87878 -1.4855,-4.82886 -1.067307,0.0153 -2.917307,0.3872 -3.79036,0.82198 2.740077,1.51082 -0.276321,0.54566 -1.393392,0.30514 -0.144927,1.39819 -1.249776,0.79447 -2.630946,0.80801 2.206642,0.27283 -1.074291,2.25597 -2.337599,1.4855 -1.643959,0.78443 1.416965,2.74531 0.0323,3.35208 0.170682,0.91234 -2.517012,-0.33045 -2.307043,1.78059 -1.594631,-0.67225 -0.218263,2.50305 0.579707,1.42876 2.713013,0.73511 1.909804,2.40788 1.977902,3.99858 -0.441765,0.92587 -2.182632,-2.17739 -0.387199,-2.03421 -1.416965,-2.3005 -1.566694,-0.83203 -2.743569,0.23703 -0.272829,0.0768 3.00112,1.52086 0.946389,2.23371 1.807657,0.27981 1.860476,1.86222 2.228905,2.86317 1.086078,1.13192 0.862576,-1.25021 2.163862,0.11088 -0.823726,-1.21267 -4.358717,-3.41582 -1.512565,-2.70952 -0.01528,-1.21922 -0.515101,-2.20315 0.357952,-2.17958 0.864759,-1.56364 -0.905356,3.85715 1.041989,1.86921 0.538674,-0.23529 0.67356,-1.56539 1.642213,0.12616 1.406488,1.38466 0.508116,2.38692 -1.47677,1.11838 0.35446,1.20568 2.654955,1.63522 2.22192,3.51971 0.458353,1.65749 1.099611,1.04679 1.658801,0.95119 0.438273,1.60991 0.687529,0.42649 0.708046,-0.34093 2.006713,0.42998 1.536137,1.61646 2.165172,2.44543 1.382916,0.62379 -1.979648,-4.23082 0.394183,-1.45975 2.497805,2.25597 0.937659,3.19712 -1.304341,2.83568 1.418711,-0.11437 1.875318,1.91853 3.650671,1.84694 1.618204,0.77047 2.714759,3.7275 -0.07508,2.49606 -0.966907,-0.8731 -4.392767,-1.94914 -1.594195,-0.2899 2.581618,1.19695 4.634601,1.91155 7.125858,3.41407 1.781902,1.27204 2.552371,2.7296 3.227678,3.01814 -1.498597,0.71591 -4.514994,-0.57141 -2.27474,-0.96515 -1.398194,-0.25406 -2.970127,-0.96167 -1.631736,0.77919 1.138897,0.95163 4.032631,0.85079 4.55297,0.95818 -0.440017,0.96865 -1.195207,1.04548 0.01703,1.12056 -1.35236,0.72115 0.434781,0.83377 0.559192,1.24454 z m -2.765832,-7.81121 c -0.823726,-0.86126 -1.036751,-2.47248 -0.146675,-1.07123 0.457045,0.18421 1.461492,2.63487 0.146675,1.07123 z m 9.008598,5.72243 c 0.513355,-0.0341 0.01528,0.39025 0,0 z m -10.307701,-7.83347 c -0.03274,-1.30129 0.296401,1.00401 0,0 z m -0.895318,-1.20394 c -1.036748,-2.00016 1.304342,0.56617 0,0 z m -10.852048,-7.48905 c 0.608955,-0.16239 0.300331,1.03981 0,0 z m 8.637114,4.68044 c 0.37323,-1.40344 0.438274,1.17687 0,0 z m -6.101331,-4.2426 c -0.429542,-0.77396 0.898808,0.72681 0,0 z m 5.234826,1.67801 c -0.980438,-2.19617 0.695823,-1.20045 0.218263,0.35969 z m -9.028678,-6.02101 c -0.438272,-0.72115 -1.162907,-2.83568 -0.929365,-3.48174 0.209533,1.05203 2.235452,4.52547 0.992225,1.43923 -1.37244,-2.58686 1.642213,0.83856 1.952583,1.48506 0.144927,0.64126 -0.847734,-0.17548 -0.17592,1.3301 -1.225767,-1.71381 -0.722888,0.94639 -1.839523,-0.77265 z m -2.789841,-1.92334 c 0.11437,-1.67626 0.637765,1.14937 0,0 z m 1.255014,0.43303 c 0.598478,-1.26505 1.014488,1.76314 0,0 z m -3.019891,-2.33585 c -1.038496,-1.0337 -1.790631,-1.98489 0.04933,-0.64126 0.707609,0.0271 -1.575424,-2.16386 0.170682,-0.69582 1.834721,0.33438 0.905356,3.00985 -0.22001,1.33708 z m 1.585901,-0.041 c 0.603716,-0.59848 0.320411,0.58844 0,0 z m 0.976947,0.31211 c -0.915833,-1.7138 1.110086,0.7194 0,0 z m -1.940361,-1.85349 c -3.01989,-2.68944 3.793852,1.40475 0.492839,0.49764 z m 8.653702,5.02661 c -1.307834,-0.7827 -0.347912,-5.51595 0.09909,-2.27955 1.270293,-0.4112 -0.07028,1.67277 0.876109,1.65226 -0.147982,1.31438 -0.572723,1.78714 -0.9752,0.62729 z m 3.200612,1.89277 c 0.127903,-1.427 0.269337,0.97564 0,0 z m -0.555698,-0.55089 c 0.143181,-0.60852 0.01353,0.71808 0,0 z m -10.707122,-7.25205 c -1.940361,-2.67722 5.639049,2.70778 1.243227,0.6788 -0.458789,-0.12092 -1.012742,-0.1637 -1.243227,-0.6788 z m 6.164191,3.2674 c -0.183778,-2.25422 0.409461,0.37323 0,0 z m 4.679127,3.00243 c 0.361444,-1.28382 0.0275,0.84948 0,0 z m -10.544734,-7.2913 c 1.152866,-0.24707 4.777783,2.02417 1.449268,0.64824 -0.369738,-0.40946 -1.159415,-0.2235 -1.449268,-0.64824 z m 9.901731,4.93493 c 0.1231,-2.30529 0.689275,-1.37593 0.0052,0.33089 z m -9.043957,-5.7377 c 0.470576,-0.68928 -1.248466,-3.11549 0.247074,-0.87 0.646496,0.51336 1.870516,0.85952 0.789677,1.07604 1.699834,1.49903 -0.414264,0.40597 -1.036751,-0.20604 z m 8.554611,5.01831 c 0.324339,-2.62615 0.286797,1.53788 0,0 z m -9.536795,-7.44322 c 0.359698,-0.15366 0.190762,0.47887 0,0 z m 2.23196,1.32835 c 0.574469,-1.20568 1.059013,1.34363 0,0 z m 6.293839,3.50051 c -0.0052,-0.46185 0.119172,0.67356 0,0 z m -0.364936,-0.80627 c -0.873053,-2.15556 0.813249,1.14065 0,0 z m -0.535618,-1.41391 c -0.146237,-0.89007 0.498077,1.11882 0,0 z m 0.873053,-1.41871 c -0.600224,-1.05552 0.757373,-4.65512 0.909285,-2.42272 -0.632964,1.73912 -0.182469,2.71127 0.257114,0.37847 0.815431,-1.83472 -0.175484,3.62361 -1.166399,2.04425 z m 0.897062,-5.35225 c 0.261043,-0.32084 0.05806,0.38676 0,0 z m -1.498596,29.52185 c -0.354896,-0.31037 0.04584,0.196 0,0 z m 3.086243,1.56015 c 1.716859,0.44177 1.708565,-0.26628 0.156713,-0.47756 -0.833766,-0.77571 -3.468203,-1.59943 -1.110087,-0.0956 0.155403,0.39593 0.648242,0.38545 0.953374,0.57316 z m -6.094347,-4.04835 c 0.944644,0.7063 3.562057,1.99842 1.347121,0.26977 0.746897,-0.86824 -1.429188,-1.33009 -0.70761,-1.91154 -1.836467,-1.12406 -1.449704,-1.02322 -0.161951,-0.98743 -2.206642,-0.98742 0.318664,-0.91234 0.199493,-1.41871 -0.85079,-0.16719 -4.227323,-1.50078 -2.240691,0.10913 -2.018935,-1.02845 -0.481052,0.38371 -1.091316,0.23529 -2.065207,-0.56268 1.838213,1.57237 -0.327395,1.04199 1.183423,0.93766 3.18708,2.40439 0.499386,0.99223 -0.352713,0.50986 1.923773,1.28251 2.482963,1.66927 z m 3.227677,1.85524 c 3.923937,1.26375 -1.925082,-1.54661 0,0 z m 16.523402,10.00955 c 0.05107,-0.7792 -0.535618,0.66483 0,0 z m 1.698524,0.7146 c 0.905357,-0.87655 0.03754,1.39819 1.500341,-0.21477 0.01528,-1.15462 -0.04409,-1.83647 -1.681062,-0.43347 -0.452242,0.251 -0.653045,1.31307 0.180721,0.64824 z m -26.959004,-16.93068 c -0.278067,-1.09307 -1.949091,-1.08826 0,0 z m 1.812458,1.18822 c -0.67356,-1.11663 -2.402642,-1.01099 0,0 z m 10.318177,6.22225 c 1.00794,0.89532 4.626308,0.65654 1.222711,0.11088 -0.503315,-0.74515 -3.198866,-0.56618 -1.222711,-0.11088 z m 14.181875,8.75978 c 1.550104,-1.30129 -1.502089,0.57971 0,0 z m 3.224621,2.21493 c 0.01004,-0.41775 -0.668323,0.18247 0,0 z m 0.0052,-0.58494 c 1.716861,-1.8177 -1.662727,0.10738 0,0 z m -34.003196,-21.53473 c -1.4628,-2.08703 -0.908848,-3.02513 -2.320574,-4.7302 -0.268028,-1.30434 -2.421413,-4.26137 -1.11358,-1.12886 1.196956,1.83298 1.551852,4.6704 3.434154,5.85906 z m 33.464123,20.95677 c 3.160016,-2.0412 -1.295612,-0.88834 0,0 z m 2.411373,0.94464 c 1.582408,-1.3576 -1.000955,-0.28331 0,0 z m -31.951995,-20.4744 c 0.452241,-0.67356 -1.169455,-0.0869 0,0 z m 31.448679,19.82965 c 1.531337,-0.98698 -0.352714,-0.83551 -0.277631,0.0904 z m -20.78259,-13.09929 c -0.05282,-0.66832 -0.809757,0.0563 0,0 z m 1.283824,0.73861 c -0.409025,-0.82547 -0.627288,0.12965 0,0 z m 21.955975,13.02769 c 1.962623,-1.41565 -1.188225,-0.27152 -0.410772,0.26934 z m -0.751699,-0.36319 c 1.599434,-1.33882 -1.68674,0.59324 0,0 z m 3.839687,2.55587 c 1.072983,-0.71809 -1.304342,-0.2318 0,0 z m -36.009945,-23.1752 c 1.437481,0.32216 5.748181,3.54154 3.20585,0.22351 -1.302595,-0.38546 -0.521649,-3.56905 -1.849999,-3.00636 0.891824,1.4903 0.732928,2.12282 -1.139334,1.18517 -2.351132,-1.14938 -1.321366,0.56792 -0.860831,1.04199 -0.627725,0.14318 0.828528,0.54391 0.644314,0.55569 z m -6.5527,-5.17502 c 0.257114,-1.066 -2.372085,-5.85906 -1.241481,-2.40264 0.407279,0.72463 0.364936,2.09707 1.241481,2.40264 z m 12.028052,7.41571 c -0.741659,-0.61899 -0.0358,-0.0886 0,0 z m 1.822934,0.42474 c 0,-1.12885 -2.015443,-0.45878 0,0 z m 15.807061,9.96328 c -0.30164,-0.7709 -1.191716,-0.017 0,0 z m 0.758685,0.55396 c -0.112624,-0.43129 -0.438272,0.0838 0,0 z m 6.265028,3.94751 c 0.60197,-0.44482 -0.752135,-0.0576 0,0 z m -33.409557,-21.46969 c 1.723843,-0.66701 -1.846944,-0.47581 0,0 z m 24.994199,15.74551 c -0.02008,-1.11532 -1.09961,0.27807 0,0 z m -25.674744,-17.33315 c 1.106595,-0.37323 -1.024964,-0.24533 0,0 z m 3.212399,1.55665 c -0.01877,-0.36624 -0.339182,0.14013 0,0 z m 39.193971,24.03471 c 1.423511,-0.2881 4.66865,0.72464 5.192045,-0.37672 -1.729081,-0.0428 -5.979976,-1.22096 -6.181217,0.27938 l 0.378471,0.0598 z m -38.172499,-23.77716 c 0.02576,-1.1306 -0.881347,-0.0423 0,0 z m -8.447225,-5.86037 c -0.383707,-2.15382 -1.459745,-0.32608 0,0 z m 2.013697,0.50637 c 0.02576,-0.69233 -1.843452,-0.62248 0,0 z m 1.15112,0.56618 c -0.332633,-0.26978 -0.259296,0.33918 0,0 z m 7.245031,4.64639 c 0.341363,-0.31387 -0.808011,-0.2318 0,0 z m -8.010698,-5.92192 c -0.196001,-1.62694 -2.334544,-0.24402 0,0 z m -4.131724,-2.68071 c -0.05806,-0.75039 -0.402477,0.28287 0,0 z m 0.615503,-0.46359 c -0.100401,-0.89052 -0.528634,0.11218 0,0 z m 3.393557,2.02548 c 1.435736,-0.56268 -2.614358,-1.1664 -0.293346,-0.10564 z m 45.432808,28.06385 c 0.918888,-0.84206 -1.166401,-0.2606 0,0 z m 5.488884,2.84441 c 0.368428,-1.08783 -0.927619,0.14318 0,0 z m -50.574217,-32.68667 c 0.151911,-1.05377 -1.138898,0.20953 0,0 z m -4.830603,-3.23641 c -0.259296,-1.48681 -0.223501,-4.09767 2.257716,-3.21589 -3.311491,0.65828 2.29351,4.11776 1.585901,1.38597 1.392956,0.0685 2.724798,-0.82329 1.99318,0.52864 2.745315,-0.30164 4.646824,-2.68202 7.298286,-2.34764 2.064771,-0.27458 4.322486,-0.48105 6.547898,-1.31307 1.829483,-0.1314 3.590867,-2.10101 2.588602,-3.26915 -2.494748,-0.21128 -5.10736,0.10084 -7.864461,0.64999 -3.055686,0.63427 -5.831558,1.84127 -8.914745,2.35986 -3.006358,0.40422 0.603716,1.11183 -0.257551,1.27029 -1.56713,0.54391 1.870517,0.9106 -0.202984,1.48506 -1.280333,-0.24358 -2.613921,-0.6836 -2.066517,-2.03421 -2.878456,0.37541 -5.409,1.56888 -3.13426,4.49841 l 0.168935,0.002 z m 6.938589,-3.53324 c 0.673561,-2.48602 3.614877,2.04643 1.104849,0.33088 -0.298584,-0.22524 -0.793169,-0.40771 -1.104849,-0.33088 z m 0.130959,-1.20569 c 0.97389,-0.72463 0.516847,0.40772 0,0 z m 1.236243,0.0205 c 0.08905,-1.14413 2.83262,0.60546 0.452241,0.41121 z m 1.69154,-0.68011 c 0.618994,-0.72332 0.179412,0.64082 0,0 z m 0.43347,-0.28985 c 1.029767,-1.23624 5.82632,-0.78968 2.315337,-0.12135 -0.941151,-0.70936 -1.662293,0.41775 -2.315337,0.12135 z m 6.2611,-0.96516 c -0.154966,-3.37828 3.111998,1.1987 0,0 z m 1.7771,-0.0105 c 0.649551,-1.70158 2.521814,-0.6836 0.30164,-0.34267 0.04758,0.18246 -0.06635,0.88003 -0.30164,0.34267 z m -14.339023,9.02737 c 1.94036,-1.18866 -2.059969,-1.03151 0,0 z m 1.435736,0.39724 c 0.680544,-0.72289 -1.480262,-0.29335 0,0 z m -4.228633,-2.99938 c 1.108341,-0.85253 -1.313072,-0.3239 0,0 z m 57.307639,35.85149 c 0.0323,-0.98917 -0.847735,0.44482 0,0 z m -5.823264,-3.97501 c 0.165443,-1.13715 -0.748643,0.0991 0,0 z m 7.424442,4.35872 c 1.550107,0.005 4.697463,-0.4828 1.324857,-0.48106 -0.530379,0.0821 -3.084494,0.065 -1.324857,0.48106 z m -53.418186,-33.93339 c 1.255013,-0.0851 1.962623,-1.38292 -0.244019,-1.30958 -3.418875,-0.35272 3.016399,1.17163 -0.438272,0.73511 -0.463591,0.30688 0.65479,0.66003 0.682291,0.57447 z m 1.104848,0.55962 c -0.131394,-0.80495 -0.388945,0.4278 0,0 z m 1.311326,-3.4957 c 0.543912,-0.67531 -0.753881,-0.18072 0,0 z m -4.174503,-6.97613 c 2.240691,-0.76043 5.303361,-1.61646 6.360628,0.37541 -1.076038,-1.2943 -0.434781,-2.56983 0.581453,-0.6753 1.437482,1.91504 2.156878,-0.87131 1.222274,-1.51431 1.065998,1.32311 2.276486,1.94909 0.712848,0.0838 1.700271,-2.04469 -3.401851,0.26759 -4.561265,0.24358 -0.557445,0.25057 -5.759968,1.3266 -4.315938,1.48681 z m 1.313072,-2.51308 c 1.277276,-0.96342 4.418085,0.57447 2.402642,-0.95862 -0.197747,-0.17373 -4.412847,1.16291 -2.402642,0.95862 z m 4.656864,0.1925 c 1.493794,0.0376 -0.644313,-2.00889 1.135843,-1.08127 -0.2916,-0.95468 -2.073502,-1.13366 -2.944808,-1.51562 -0.492839,0.87305 1.002265,2.60868 1.808965,2.59689 z m -3.840123,-4.22732 c 0.516847,-0.70062 -0.907102,0.35664 0,0 z m 1.903255,0.4553 c 2.40919,-0.31867 -0.614192,-1.03675 -0.48629,-0.0253 z m -3.553762,-2.77937 c -1.696778,-2.21493 3.190572,0.37193 1.466293,-1.94734 -1.451015,-1.15418 -2.843971,1.30129 -1.466293,1.94734 z m 21.766522,11.72336 c 0.77789,-1.37811 -3.210652,-1.85873 -0.523395,-0.48804 0.247073,0.0821 0.191198,0.5832 0.523395,0.48804 z"
       id="path8659"
       style="stroke-width:0.260769" />
  </g>
  <g
     id="g8909"
     transform="matrix(0.20924135,0,0,0.20924135,14.965152,328.042)">
    <path
       d="m 235.64828,194.21163 c -13.91843,-0.34707 -24.70541,1.04564 -33.75268,4.87233 -2.6097,1.04345 -6.78567,1.04454 -7.13383,4.3495 1.39273,1.39273 1.56626,3.65426 2.78433,5.56759 2.08909,3.4785 5.74115,8.17729 9.04722,10.61346 3.65314,2.78324 7.30737,5.56648 11.1341,8.00264 6.78567,4.17597 14.4412,6.61102 21.05226,10.78697 3.8289,2.43395 7.65444,5.56759 11.48225,8.17729 1.91448,1.39052 3.13145,3.65313 5.56762,4.52304 v -0.52172 c -1.21811,-1.56625 -1.56627,-3.82778 -2.78324,-5.56759 -1.73872,-1.7398 -3.47961,-3.30606 -5.21941,-5.04586 -5.04588,-6.78458 -11.30877,-12.7003 -18.09435,-17.57153 -5.56649,-3.8278 -17.7462,-9.0472 -20.00779,-15.4847 0,0 -0.17462,-0.17354 -0.34816,-0.34708 3.82777,-0.34818 8.35082,-1.73979 12.00509,-2.78435 5.91578,-1.56625 11.30877,-1.21807 17.39799,-2.78324 2.78324,-0.69635 5.56761,-1.56625 8.35085,-2.43616 v -1.56515 c -3.13031,-3.13254 -5.39294,-7.30739 -8.69901,-10.26529 -8.87256,-7.65667 -18.61614,-15.13651 -28.70676,-21.39939 -5.39408,-3.4796 -12.35329,-5.74224 -18.09435,-8.69902 -2.08687,-1.04564 -5.56761,-1.56625 -6.78459,-3.30607 -3.13252,-3.82778 -4.87232,-8.87254 -7.13384,-13.39672 -5.04365,-9.56998 -9.91712,-20.18127 -14.26657,-30.27191 -3.13031,-6.78568 -5.04476,-13.571381 -8.87255,-19.834147 C 136.65317,60.247905 117.1671,42.32811 87.242308,24.755457 80.804823,21.102305 73.150378,19.536054 64.973063,17.622712 60.624665,17.448068 56.274047,17.100997 51.924507,16.926352 49.141266,15.708258 46.356919,12.403309 43.920746,10.837044 34.005876,4.5730961 8.429423,-8.9960711 1.1220548,8.9237024 -3.5756358,20.232452 8.0812675,31.366477 12.082548,37.108681 c 2.958988,4.001337 6.785671,8.52437 8.873657,13.048565 1.218089,2.955677 1.565157,6.089302 2.783246,9.220731 2.784342,7.653362 5.392941,16.179897 9.047189,23.313829 1.914445,3.653152 4.001326,7.480936 6.43749,10.78586 1.391616,1.91334 3.826679,2.784347 4.349499,5.91577 -2.435054,3.479594 -2.609701,8.699014 -4.002431,13.048554 -6.262843,19.6595 -3.826684,44.01681 5.045873,58.4569 2.783241,4.34841 9.395336,13.91953 18.267961,10.26529 7.829109,-3.13144 6.089302,-13.04855 8.350828,-21.74757 0.522829,-2.08909 0.174642,-3.47959 1.218085,-4.87123 9.06e-4,0.17354 0,0.34818 0,0.34818 2.436159,4.87123 4.871226,9.56895 7.132744,14.4401 5.394047,8.52436 14.788354,17.39801 22.617411,23.31384 4.17708,3.13031 7.48204,8.52438 12.70142,10.43881 v -0.52283 h -0.34818 c -1.04454,-1.56625 -2.6097,-2.26152 -4.00132,-3.47959 -3.13143,-3.13143 -6.61214,-6.95923 -9.04719,-10.43881 -7.306285,-9.74359 -13.744889,-20.52945 -19.485981,-31.66458 -2.783241,-5.39295 -5.219401,-11.30877 -7.480928,-16.70169 -1.044543,-2.08908 -1.044543,-5.2194 -2.784346,-6.26284 -2.609701,3.82668 -6.436384,7.13275 -8.350829,11.83045 -3.303854,7.48092 -3.653143,16.70168 -4.871227,26.27053 -0.695269,0.17465 -0.348187,0 -0.69637,0.34819 -5.566486,-1.39273 -7.480931,-7.13275 -9.568954,-12.00509 -5.219405,-12.35212 -6.089301,-32.18637 -1.565156,-46.45181 1.218084,-3.65425 6.437489,-15.136527 4.349503,-18.616138 C 50.0111,92.086027 46.530392,90.172697 44.617053,87.562997 42.355526,84.256927 39.919367,80.082065 38.35421,76.427858 34.178238,66.685381 32.090261,55.898411 27.567235,46.154815 25.47925,41.630666 21.826107,36.934084 18.868219,32.759206 15.563264,28.061528 11.909007,24.755457 9.2992702,19.187851 8.4304697,17.274509 7.2112844,14.143092 8.6029095,12.055097 8.9510921,10.663485 9.6463473,10.14176 11.039069,9.793575 c 2.261527,-1.9144455 8.699016,0.521716 10.960493,1.565161 6.437489,2.608589 11.830444,5.045873 17.224491,8.699015 2.435058,1.739801 5.044758,5.045872 8.176187,5.915773 h 3.654243 c 5.567588,1.216981 11.830444,0.348166 17.049845,1.913341 9.221836,2.956783 17.571536,7.307389 25.053642,12.005086 22.79206,14.440098 41.58058,34.970664 54.28209,59.501494 2.08799,4.000225 2.95679,7.655565 4.87123,11.830445 3.65425,8.52547 8.17729,17.22449 11.83044,25.57533 3.65314,8.17618 7.13274,16.52814 12.35213,23.31383 2.61081,3.65204 13.04854,5.56648 17.74617,7.48092 3.4796,1.56517 8.87368,2.9579 12.00508,4.87124 5.91469,3.65203 11.83047,7.82912 17.39803,11.83044 2.78433,2.08688 11.48226,6.43749 12.00509,9.916 z"
       fill="#00546b"
       id="path8897" />
    <path
       d="m 58.186489,43.022264 c -2.957883,0 -5.044758,0.349289 -7.132744,0.871017 0,-9.07e-4 0,0.174642 0,0.348182 h 0.348187 c 1.392726,2.78324 3.826683,4.697686 5.566482,7.132735 1.392731,2.783241 2.6097,5.567596 4.002431,8.351943 0.173532,-0.174646 0.347072,-0.348183 0.347072,-0.348183 2.437275,-1.740908 3.654249,-4.524149 3.654249,-8.699015 -1.044548,-1.218085 -1.218089,-2.436164 -2.087986,-3.654249 -1.043443,-1.740912 -3.306075,-2.609699 -4.697691,-4.00243 z"
       fill="#00546b"
       id="path8899" />
  </g>
  <path
     d="m 104.7708,211.22045 c 1.97143,-0.20409 3.46706,-1.90361 3.39903,-3.94328 -0.0679,-2.03947 -1.76754,-3.67116 -3.80701,-3.67116 h -0.13585 c -2.10771,0.068 -3.73919,1.83557 -3.67117,3.94306 0.068,1.01984 0.47581,1.90362 1.08767,2.51548 -2.311382,4.55514 -5.846483,7.88636 -11.149136,10.67375 -3.603124,1.90361 -7.342121,2.5835 -11.081099,2.1077 -3.059306,-0.40798 -5.438708,-1.76755 -6.934552,-4.01131 -2.175323,-3.33122 -2.3792,-6.93455 -0.543626,-10.53769 1.291755,-2.5835 3.331013,-4.48712 4.622758,-5.43892 -0.271909,-0.88378 -0.679884,-2.37941 -0.88377,-3.46707 -9.85759,7.13844 -8.837744,16.79236 -5.846481,21.34729 2.243347,3.39945 6.798284,5.50695 11.829017,5.50695 1.359576,0 2.719152,-0.13606 4.07893,-0.4758 8.7019,-1.69973 15.296309,-6.86673 19.035289,-14.549 z m 11.96508,-8.43019 c -5.1668,-6.05078 -12.78082,-9.382 -21.482722,-9.382 h -1.087657 c -0.61187,-1.22372 -1.903616,-2.03968 -3.331224,-2.03968 h -0.136056 c -2.107291,0.068 -3.738776,1.83559 -3.670955,3.94329 0.06805,2.03947 1.767551,3.67117 3.807011,3.67117 h 0.135863 c 1.495631,-0.068 2.787377,-1.01984 3.331215,-2.31159 h 1.223713 c 5.166802,0 10.061472,1.49563 14.480562,4.41908 3.39903,2.24356 5.84648,5.167 7.20604,8.7021 1.1557,2.85542 1.08767,5.64281 -0.13605,8.02243 -1.90341,3.60313 -5.09856,5.57478 -9.31355,5.57478 -2.71936,0 -5.30265,-0.81596 -6.66243,-1.42782 -0.74772,0.67989 -2.107504,1.76755 -3.059307,2.44765 2.923447,1.35957 5.914727,2.1075 8.769937,2.1075 6.52636,0 11.35322,-3.60334 13.18879,-7.20648 1.97144,-3.94328 1.83538,-10.74178 -3.26318,-16.52043 z m -34.535471,9.58567 c 0.06805,2.03967 1.767551,3.67116 3.807021,3.67116 h 0.136065 c 2.107493,-0.0679 3.738978,-1.83558 3.670946,-3.94308 -0.06786,-2.03967 -1.767551,-3.67116 -3.807011,-3.67116 h -0.135854 c -0.136065,0 -0.340154,0 -0.475795,0.0679 -2.787387,-4.62297 -3.943077,-9.6537 -3.535102,-15.09262 0.271707,-4.07914 1.631486,-7.61444 4.010897,-10.53789 1.971437,-2.51547 5.778448,-3.7392 8.361958,-3.80702 7.206046,-0.13606 10.265136,8.83797 10.469226,12.4413 0.88378,0.20388 2.37941,0.67989 3.39925,1.01984 C 107.28606,181.51083 100.48778,175.8 93.961615,175.8 c -6.118602,0 -11.761206,4.41907 -14.004754,10.94565 -3.127127,8.70211 -1.087667,17.06427 2.719354,23.65888 -0.33974,0.4758 -0.543829,1.22373 -0.475806,1.97164 z"
     fill="#764abc"
     id="path9489"
     style="stroke-width:0.208684" />
</svg>
